<svg xmlns="http://www.w3.org/2000/svg" xmlns:xlink="http://www.w3.org/1999/xlink" width="58cm" height="98cm" viewBox="-575 -482 1149 1944"><line style="fill:none;fill-opacity:0;stroke-width:2;stroke:#000" x1="-514.121" x2="-5.495" y1="1330.48" y2="449.517"/><g><ellipse style="fill:#000" cx="-519.616" cy="1340" rx="10" ry="10"/><ellipse style="fill:none;fill-opacity:0;stroke-width:2;stroke:#000" cx="-519.616" cy="1340" rx="10" ry="10"/></g><g><ellipse style="fill:#000" cx="0" cy="440" rx="10" ry="10"/><ellipse style="fill:none;fill-opacity:0;stroke-width:2;stroke:#000" cx="0" cy="440" rx="10" ry="10"/></g><g><ellipse style="fill:#000" cx="-103.923" cy="620" rx="10" ry="10"/><ellipse style="fill:none;fill-opacity:0;stroke-width:2;stroke:#000" cx="-103.923" cy="620" rx="10" ry="10"/></g><g><ellipse style="fill:#000" cx="-207.846" cy="800" rx="10" ry="10"/><ellipse style="fill:none;fill-opacity:0;stroke-width:2;stroke:#000" cx="-207.846" cy="800" rx="10" ry="10"/></g><g><ellipse style="fill:#000" cx="-311.77" cy="980" rx="10" ry="10"/><ellipse style="fill:none;fill-opacity:0;stroke-width:2;stroke:#000" cx="-311.77" cy="980" rx="10" ry="10"/></g><g><ellipse style="fill:#000" cx="-415.692" cy="1160" rx="10" ry="10"/><ellipse style="fill:none;fill-opacity:0;stroke-width:2;stroke:#000" cx="-415.692" cy="1160" rx="10" ry="10"/></g><line style="fill:none;fill-opacity:0;stroke-width:2;stroke:#000" x1="5.495" x2="514.121" y1="449.517" y2="1330.48"/><g><ellipse style="fill:#000" cx="0" cy="440" rx="10" ry="10"/><ellipse style="fill:none;fill-opacity:0;stroke-width:2;stroke:#000" cx="0" cy="440" rx="10" ry="10"/></g><g><ellipse style="fill:#000" cx="519.616" cy="1340" rx="10" ry="10"/><ellipse style="fill:none;fill-opacity:0;stroke-width:2;stroke:#000" cx="519.616" cy="1340" rx="10" ry="10"/></g><g><ellipse style="fill:#000" cx="415.692" cy="1160" rx="10" ry="10"/><ellipse style="fill:none;fill-opacity:0;stroke-width:2;stroke:#000" cx="415.692" cy="1160" rx="10" ry="10"/></g><g><ellipse style="fill:#000" cx="311.77" cy="980" rx="10" ry="10"/><ellipse style="fill:none;fill-opacity:0;stroke-width:2;stroke:#000" cx="311.77" cy="980" rx="10" ry="10"/></g><g><ellipse style="fill:#000" cx="207.846" cy="800" rx="10" ry="10"/><ellipse style="fill:none;fill-opacity:0;stroke-width:2;stroke:#000" cx="207.846" cy="800" rx="10" ry="10"/></g><g><ellipse style="fill:#000" cx="103.923" cy="620" rx="10" ry="10"/><ellipse style="fill:none;fill-opacity:0;stroke-width:2;stroke:#000" cx="103.923" cy="620" rx="10" ry="10"/></g><line style="fill:none;fill-opacity:0;stroke-width:2;stroke:#000" x1="508.627" x2="-508.627" y1="1340" y2="1340"/><g><ellipse style="fill:#000" cx="519.616" cy="1340" rx="10" ry="10"/><ellipse style="fill:none;fill-opacity:0;stroke-width:2;stroke:#000" cx="519.616" cy="1340" rx="10" ry="10"/></g><g><ellipse style="fill:#000" cx="-519.616" cy="1340" rx="10" ry="10"/><ellipse style="fill:none;fill-opacity:0;stroke-width:2;stroke:#000" cx="-519.616" cy="1340" rx="10" ry="10"/></g><g><ellipse style="fill:#000" cx="-311.77" cy="1340" rx="10" ry="10"/><ellipse style="fill:none;fill-opacity:0;stroke-width:2;stroke:#000" cx="-311.77" cy="1340" rx="10" ry="10"/></g><g><ellipse style="fill:#000" cx="-103.923" cy="1340" rx="10" ry="10"/><ellipse style="fill:none;fill-opacity:0;stroke-width:2;stroke:#000" cx="-103.923" cy="1340" rx="10" ry="10"/></g><g><ellipse style="fill:#000" cx="103.923" cy="1340" rx="10" ry="10"/><ellipse style="fill:none;fill-opacity:0;stroke-width:2;stroke:#000" cx="103.923" cy="1340" rx="10" ry="10"/></g><g><ellipse style="fill:#000" cx="311.77" cy="1340" rx="10" ry="10"/><ellipse style="fill:none;fill-opacity:0;stroke-width:2;stroke:#000" cx="311.77" cy="1340" rx="10" ry="10"/></g><line style="fill:none;fill-opacity:0;stroke-width:2;stroke:#000" x1="-340.907" x2="-5.503" y1="1230.47" y2="649.531"/><g><ellipse style="fill:#000" cx="-346.41" cy="1240" rx="10" ry="10"/><ellipse style="fill:none;fill-opacity:0;stroke-width:2;stroke:#000" cx="-346.41" cy="1240" rx="10" ry="10"/></g><g><ellipse style="fill:#000" cx="0" cy="640" rx="10" ry="10"/><ellipse style="fill:none;fill-opacity:0;stroke-width:2;stroke:#000" cx="0" cy="640" rx="10" ry="10"/></g><g><ellipse style="fill:#000" cx="-115.47" cy="840" rx="10" ry="10"/><ellipse style="fill:none;fill-opacity:0;stroke-width:2;stroke:#000" cx="-115.47" cy="840" rx="10" ry="10"/></g><g><ellipse style="fill:#000" cx="-230.94" cy="1040" rx="10" ry="10"/><ellipse style="fill:none;fill-opacity:0;stroke-width:2;stroke:#000" cx="-230.94" cy="1040" rx="10" ry="10"/></g><line style="fill:none;fill-opacity:0;stroke-width:2;stroke:#000" x1="5.503" x2="340.907" y1="649.531" y2="1230.47"/><g><ellipse style="fill:#000" cx="0" cy="640" rx="10" ry="10"/><ellipse style="fill:none;fill-opacity:0;stroke-width:2;stroke:#000" cx="0" cy="640" rx="10" ry="10"/></g><g><ellipse style="fill:#000" cx="346.41" cy="1240" rx="10" ry="10"/><ellipse style="fill:none;fill-opacity:0;stroke-width:2;stroke:#000" cx="346.41" cy="1240" rx="10" ry="10"/></g><g><ellipse style="fill:#000" cx="230.94" cy="1040" rx="10" ry="10"/><ellipse style="fill:none;fill-opacity:0;stroke-width:2;stroke:#000" cx="230.94" cy="1040" rx="10" ry="10"/></g><g><ellipse style="fill:#000" cx="115.47" cy="840" rx="10" ry="10"/><ellipse style="fill:none;fill-opacity:0;stroke-width:2;stroke:#000" cx="115.47" cy="840" rx="10" ry="10"/></g><line style="fill:none;fill-opacity:0;stroke-width:2;stroke:#000" x1="335.405" x2="-335.405" y1="1240" y2="1240"/><g><ellipse style="fill:#000" cx="346.41" cy="1240" rx="10" ry="10"/><ellipse style="fill:none;fill-opacity:0;stroke-width:2;stroke:#000" cx="346.41" cy="1240" rx="10" ry="10"/></g><g><ellipse style="fill:#000" cx="-346.41" cy="1240" rx="10" ry="10"/><ellipse style="fill:none;fill-opacity:0;stroke-width:2;stroke:#000" cx="-346.41" cy="1240" rx="10" ry="10"/></g><g><ellipse style="fill:#000" cx="-115.47" cy="1240" rx="10" ry="10"/><ellipse style="fill:none;fill-opacity:0;stroke-width:2;stroke:#000" cx="-115.47" cy="1240" rx="10" ry="10"/></g><g><ellipse style="fill:#000" cx="115.47" cy="1240" rx="10" ry="10"/><ellipse style="fill:none;fill-opacity:0;stroke-width:2;stroke:#000" cx="115.47" cy="1240" rx="10" ry="10"/></g><line style="fill:none;fill-opacity:0;stroke-width:2;stroke:#000" x1="-167.702" x2="-5.503" y1="1130.47" y2="849.531"/><g><ellipse style="fill:#000" cx="-173.205" cy="1140" rx="10" ry="10"/><ellipse style="fill:none;fill-opacity:0;stroke-width:2;stroke:#000" cx="-173.205" cy="1140" rx="10" ry="10"/></g><g><ellipse style="fill:#000" cx="0" cy="840" rx="10" ry="10"/><ellipse style="fill:none;fill-opacity:0;stroke-width:2;stroke:#000" cx="0" cy="840" rx="10" ry="10"/></g><line style="fill:none;fill-opacity:0;stroke-width:2;stroke:#000" x1="5.503" x2="167.702" y1="849.531" y2="1130.47"/><g><ellipse style="fill:#000" cx="0" cy="840" rx="10" ry="10"/><ellipse style="fill:none;fill-opacity:0;stroke-width:2;stroke:#000" cx="0" cy="840" rx="10" ry="10"/></g><g><ellipse style="fill:#000" cx="173.205" cy="1140" rx="10" ry="10"/><ellipse style="fill:none;fill-opacity:0;stroke-width:2;stroke:#000" cx="173.205" cy="1140" rx="10" ry="10"/></g><line style="fill:none;fill-opacity:0;stroke-width:2;stroke:#000" x1="162.2" x2="-162.2" y1="1140" y2="1140"/><g><ellipse style="fill:#000" cx="173.205" cy="1140" rx="10" ry="10"/><ellipse style="fill:none;fill-opacity:0;stroke-width:2;stroke:#000" cx="173.205" cy="1140" rx="10" ry="10"/></g><g><ellipse style="fill:#000" cx="-173.205" cy="1140" rx="10" ry="10"/><ellipse style="fill:none;fill-opacity:0;stroke-width:2;stroke:#000" cx="-173.205" cy="1140" rx="10" ry="10"/></g><line style="fill:none;fill-opacity:0;stroke-width:2;stroke:#000" x1="-346.41" x2="0" y1="200" y2="-400"/><g><ellipse style="fill:#000" cx="-346.41" cy="200" rx="10" ry="10"/><ellipse style="fill:none;fill-opacity:0;stroke-width:2;stroke:#000" cx="-346.41" cy="200" rx="10" ry="10"/></g><g><ellipse style="fill:#000" cx="0" cy="-400" rx="10" ry="10"/><ellipse style="fill:none;fill-opacity:0;stroke-width:2;stroke:#000" cx="0" cy="-400" rx="10" ry="10"/></g><g><ellipse style="fill:#000" cx="-86.603" cy="-250" rx="10" ry="10"/><ellipse style="fill:none;fill-opacity:0;stroke-width:2;stroke:#000" cx="-86.603" cy="-250" rx="10" ry="10"/></g><g><ellipse style="fill:#000" cx="-173.205" cy="-100" rx="10" ry="10"/><ellipse style="fill:none;fill-opacity:0;stroke-width:2;stroke:#000" cx="-173.205" cy="-100" rx="10" ry="10"/></g><g><ellipse style="fill:#000" cx="-259.808" cy="50" rx="10" ry="10"/><ellipse style="fill:none;fill-opacity:0;stroke-width:2;stroke:#000" cx="-259.808" cy="50" rx="10" ry="10"/></g><line style="fill:none;fill-opacity:0;stroke-width:2;stroke:#000" x1="0" x2="346.41" y1="-400" y2="200"/><g><ellipse style="fill:#000" cx="0" cy="-400" rx="10" ry="10"/><ellipse style="fill:none;fill-opacity:0;stroke-width:2;stroke:#000" cx="0" cy="-400" rx="10" ry="10"/></g><g><ellipse style="fill:#000" cx="346.41" cy="200" rx="10" ry="10"/><ellipse style="fill:none;fill-opacity:0;stroke-width:2;stroke:#000" cx="346.41" cy="200" rx="10" ry="10"/></g><g><ellipse style="fill:#000" cx="259.808" cy="50" rx="10" ry="10"/><ellipse style="fill:none;fill-opacity:0;stroke-width:2;stroke:#000" cx="259.808" cy="50" rx="10" ry="10"/></g><g><ellipse style="fill:#000" cx="173.205" cy="-100" rx="10" ry="10"/><ellipse style="fill:none;fill-opacity:0;stroke-width:2;stroke:#000" cx="173.205" cy="-100" rx="10" ry="10"/></g><g><ellipse style="fill:#000" cx="86.603" cy="-250" rx="10" ry="10"/><ellipse style="fill:none;fill-opacity:0;stroke-width:2;stroke:#000" cx="86.603" cy="-250" rx="10" ry="10"/></g><line style="fill:none;fill-opacity:0;stroke-width:2;stroke:#000" x1="346.41" x2="-346.41" y1="200" y2="200"/><g><ellipse style="fill:#000" cx="346.41" cy="200" rx="10" ry="10"/><ellipse style="fill:none;fill-opacity:0;stroke-width:2;stroke:#000" cx="346.41" cy="200" rx="10" ry="10"/></g><g><ellipse style="fill:#000" cx="-346.41" cy="200" rx="10" ry="10"/><ellipse style="fill:none;fill-opacity:0;stroke-width:2;stroke:#000" cx="-346.41" cy="200" rx="10" ry="10"/></g><g><ellipse style="fill:#000" cx="-173.205" cy="200" rx="10" ry="10"/><ellipse style="fill:none;fill-opacity:0;stroke-width:2;stroke:#000" cx="-173.205" cy="200" rx="10" ry="10"/></g><g><ellipse style="fill:#000" cx="0" cy="200" rx="10" ry="10"/><ellipse style="fill:none;fill-opacity:0;stroke-width:2;stroke:#000" cx="0" cy="200" rx="10" ry="10"/></g><g><ellipse style="fill:#000" cx="173.205" cy="200" rx="10" ry="10"/><ellipse style="fill:none;fill-opacity:0;stroke-width:2;stroke:#000" cx="173.205" cy="200" rx="10" ry="10"/></g><line style="fill:none;fill-opacity:0;stroke-width:2;stroke:#000" x1="-173.205" x2="0" y1="100" y2="-200"/><g><ellipse style="fill:#000" cx="-173.205" cy="100" rx="10" ry="10"/><ellipse style="fill:none;fill-opacity:0;stroke-width:2;stroke:#000" cx="-173.205" cy="100" rx="10" ry="10"/></g><g><ellipse style="fill:#000" cx="0" cy="-200" rx="10" ry="10"/><ellipse style="fill:none;fill-opacity:0;stroke-width:2;stroke:#000" cx="0" cy="-200" rx="10" ry="10"/></g><g><ellipse style="fill:#000" cx="-86.603" cy="-50" rx="10" ry="10"/><ellipse style="fill:none;fill-opacity:0;stroke-width:2;stroke:#000" cx="-86.603" cy="-50" rx="10" ry="10"/></g><line style="fill:none;fill-opacity:0;stroke-width:2;stroke:#000" x1="0" x2="173.205" y1="-200" y2="100"/><g><ellipse style="fill:#000" cx="0" cy="-200" rx="10" ry="10"/><ellipse style="fill:none;fill-opacity:0;stroke-width:2;stroke:#000" cx="0" cy="-200" rx="10" ry="10"/></g><g><ellipse style="fill:#000" cx="173.205" cy="100" rx="10" ry="10"/><ellipse style="fill:none;fill-opacity:0;stroke-width:2;stroke:#000" cx="173.205" cy="100" rx="10" ry="10"/></g><g><ellipse style="fill:#000" cx="86.603" cy="-50" rx="10" ry="10"/><ellipse style="fill:none;fill-opacity:0;stroke-width:2;stroke:#000" cx="86.603" cy="-50" rx="10" ry="10"/></g><line style="fill:none;fill-opacity:0;stroke-width:2;stroke:#000" x1="173.205" x2="-173.205" y1="100" y2="100"/><g><ellipse style="fill:#000" cx="173.205" cy="100" rx="10" ry="10"/><ellipse style="fill:none;fill-opacity:0;stroke-width:2;stroke:#000" cx="173.205" cy="100" rx="10" ry="10"/></g><g><ellipse style="fill:#000" cx="-173.205" cy="100" rx="10" ry="10"/><ellipse style="fill:none;fill-opacity:0;stroke-width:2;stroke:#000" cx="-173.205" cy="100" rx="10" ry="10"/></g><g><ellipse style="fill:#000" cx="0" cy="100" rx="10" ry="10"/><ellipse style="fill:none;fill-opacity:0;stroke-width:2;stroke:#000" cx="0" cy="100" rx="10" ry="10"/></g><line style="fill:none;fill-opacity:0;stroke-width:2;stroke-dasharray:20;stroke:#000" x1="-182.73" x2="-259.808" y1="94.501" y2="50"/><line style="fill:none;fill-opacity:0;stroke-width:2;stroke-dasharray:20;stroke:#000" x1="173.205" x2="86.603" y1="-100" y2="-50"/><line style="fill:none;fill-opacity:0;stroke-width:2;stroke-dasharray:20;stroke:#000" x1="0" x2="0" y1="200" y2="100"/><line style="fill:none;fill-opacity:0;stroke-width:2;stroke-dasharray:20;stroke:#000" x1="-173.205" x2="-86.603" y1="-100" y2="-50"/><line style="fill:none;fill-opacity:0;stroke-width:2;stroke-dasharray:20;stroke:#000" x1="-9.525" x2="-86.603" y1="-205.499" y2="-250"/><line style="fill:none;fill-opacity:0;stroke-width:2;stroke-dasharray:20;stroke:#000" x1="-173.205" x2="-173.205" y1="200" y2="110.999"/><line style="fill:none;fill-opacity:0;stroke-width:2;stroke-dasharray:20;stroke:#000" x1="-10.783" x2="-103.923" y1="637.925" y2="620"/><line style="fill:none;fill-opacity:0;stroke-width:2;stroke-dasharray:20;stroke:#000" x1="182.73" x2="259.808" y1="94.501" y2="50"/><line style="fill:none;fill-opacity:0;stroke-width:2;stroke-dasharray:20;stroke:#000" x1="9.525" x2="86.603" y1="-205.499" y2="-250"/><line style="fill:none;fill-opacity:0;stroke-width:2;stroke-dasharray:20;stroke:#000" x1="-207.846" x2="-115.47" y1="800" y2="840"/><line style="fill:none;fill-opacity:0;stroke-width:2;stroke-dasharray:20;stroke:#000" x1="10.783" x2="103.923" y1="637.925" y2="620"/><line style="fill:none;fill-opacity:0;stroke-width:2;stroke-dasharray:20;stroke:#000" x1="173.205" x2="173.205" y1="200" y2="110.999"/><line style="fill:none;fill-opacity:0;stroke-width:2;stroke-dasharray:20;stroke:#000" x1="311.77" x2="342.816" y1="1340" y2="1250.38"/><line style="fill:none;fill-opacity:0;stroke-width:2;stroke-dasharray:20;stroke:#000" x1="103.923" x2="115.47" y1="1340" y2="1240"/><line style="fill:none;fill-opacity:0;stroke-width:2;stroke-dasharray:20;stroke:#000" x1="207.846" x2="115.47" y1="800" y2="840"/><line style="fill:none;fill-opacity:0;stroke-width:2;stroke-dasharray:20;stroke:#000" x1="311.77" x2="230.94" y1="980" y2="1040"/><line style="fill:none;fill-opacity:0;stroke-width:2;stroke-dasharray:20;stroke:#000" x1="-342.816" x2="-311.77" y1="1250.38" y2="1340"/><line style="fill:none;fill-opacity:0;stroke-width:2;stroke-dasharray:20;stroke:#000" x1="-103.923" x2="-115.47" y1="1340" y2="1240"/><line style="fill:none;fill-opacity:0;stroke-width:2;stroke-dasharray:20;stroke:#000" x1="-415.692" x2="-353.599" y1="1160" y2="1231.7"/><line style="fill:none;fill-opacity:0;stroke-width:2;stroke-dasharray:20;stroke:#000" x1="-230.94" x2="-311.77" y1="1040" y2="980"/><line style="fill:none;fill-opacity:0;stroke-width:2;stroke-dasharray:20;stroke:#000" x1="115.47" x2="167.704" y1="1240" y2="1149.53"/><line style="fill:none;fill-opacity:0;stroke-width:2;stroke-dasharray:20;stroke:#000" x1="-230.94" x2="-178.706" y1="1040" y2="1130.47"/><line style="fill:none;fill-opacity:0;stroke-width:2;stroke-dasharray:20;stroke:#000" x1="-115.47" x2="-11.002" y1="840" y2="840"/><line style="fill:none;fill-opacity:0;stroke-width:2;stroke-dasharray:20;stroke:#000" x1="115.47" x2="11.002" y1="840" y2="840"/><line style="fill:none;fill-opacity:0;stroke-width:2;stroke-dasharray:20;stroke:#000" x1="178.706" x2="230.94" y1="1130.47" y2="1040"/><line style="fill:none;fill-opacity:0;stroke-width:2;stroke-dasharray:20;stroke:#000" x1="353.599" x2="415.692" y1="1231.7" y2="1160"/><line style="fill:none;fill-opacity:0;stroke-width:2;stroke-dasharray:20;stroke:#000" x1="-115.47" x2="-167.704" y1="1240" y2="1149.53"/><text style="fill:#000;text-anchor:middle;font-family:sans-serif;font-style:normal;font-weight:400" x="0" y="314.325" font-size="36.124"><tspan x="0" y="314.325">(a)</tspan></text><text style="fill:#000;text-anchor:middle;font-family:sans-serif;font-style:normal;font-weight:400" x="0" y="1454.33" font-size="36.124"><tspan x="0" y="1454.33">(b)</tspan></text><text style="fill:#000;text-anchor:middle;font-family:sans-serif;font-style:normal;font-weight:400" x="-340" y="274.325" font-size="36.124"><tspan x="-340" y="274.325">(0,0,1)</tspan></text><text style="fill:#000;text-anchor:middle;font-family:sans-serif;font-style:normal;font-weight:400" x="0" y="394.325" font-size="36.124"><tspan x="0" y="394.325">(0,1,0)</tspan></text><text style="fill:#000;text-anchor:middle;font-family:sans-serif;font-style:normal;font-weight:400" x="340" y="274.325" font-size="36.124"><tspan x="340" y="274.325">(1,0,0)</tspan></text><text style="fill:#000;text-anchor:middle;font-family:sans-serif;font-style:normal;font-weight:400" x="-520" y="1414.33" font-size="36.124"><tspan x="-520" y="1414.33">(0,0,1)</tspan></text><text style="fill:#000;text-anchor:middle;font-family:sans-serif;font-style:normal;font-weight:400" x="0" y="-445.675" font-size="36.124"><tspan x="0" y="-445.675">(0,1,0)</tspan></text><text style="fill:#000;text-anchor:middle;font-family:sans-serif;font-style:normal;font-weight:400" x="520" y="1414.33" font-size="36.124"><tspan x="520" y="1414.33">(1,0,0)</tspan></text></svg>