<svg xmlns="http://www.w3.org/2000/svg" xmlns:svg="http://www.w3.org/2000/svg" id="svg3249" width="1890.748" height="998.919" version="1.1" viewBox="-10.05 -0.05 43.217 28.141"><metadata id="metadata3357"/><polyline id="polyline3251" points="29.95 1.383 22.817 1.383" transform="translate(-4.7778849,0.19964079)" style="fill:none;stroke:#000;stroke-width:.1;stroke-dasharray:1,1"/><polyline id="polyline3253" points="2.817 1.383 9.95 1.383" transform="translate(-4.7778849,0.19964079)" style="fill:none;stroke:#000;stroke-width:.1;stroke-dasharray:1,1"/><ellipse id="ellipse3255" cx="1.383" cy="1.383" rx="1.383" ry="1.383" transform="translate(-4.7778849,0.19964079)" style="fill:none;stroke:#000;stroke-width:.1"/><text id="text3257" x="-3.395" y="2.052" font-size="1.69" font-style="normal" font-weight="400" style="font-size:1.69000006px;font-style:normal;font-weight:400;text-anchor:middle;fill:#000;font-family:sans">0</text><ellipse id="ellipse3259" cx="11.383" cy="1.383" rx="1.383" ry="1.383" transform="translate(-4.7778849,0.19964079)" style="fill:none;stroke:#000;stroke-width:.1"/><text id="text3261" x="6.605" y="2.052" font-size="1.69" font-style="normal" font-weight="400" style="font-size:1.69000006px;font-style:normal;font-weight:400;text-anchor:middle;fill:#000;font-family:sans">1</text><polyline id="polyline3263" points="12.767 1.383 19.513 1.383" transform="translate(-4.7778849,0.19964079)" style="fill:none;stroke:#000;stroke-width:.1"/><polygon id="polygon3265" points="19.388 1.633 19.513 1.383 19.388 1.133 19.888 1.383" transform="translate(-4.7778849,0.19964079)" style="fill:#000;stroke:none"/><polygon id="polygon3267" points="19.388 1.633 19.513 1.383 19.388 1.133 19.888 1.383" transform="translate(-4.7778849,0.19964079)" style="fill:none;stroke:#000;stroke-width:.1"/><ellipse id="ellipse3269" cx="21.383" cy="1.383" rx="1.383" ry="1.383" transform="translate(-4.7778849,0.19964079)" style="fill:none;stroke:#000;stroke-width:.1"/><text id="text3271" x="16.605" y="2.052" font-size="1.69" font-style="normal" font-weight="400" style="font-size:1.69000006px;font-style:normal;font-weight:400;text-anchor:middle;fill:#000;font-family:sans">2</text><ellipse id="ellipse3273" cx="31.383" cy="1.383" rx="1.383" ry="1.383" transform="translate(-4.7778849,0.19964079)" style="fill:none;stroke:#000;stroke-width:.1"/><text id="text3275" x="26.605" y="2.052" font-size="1.69" font-style="normal" font-weight="400" style="font-size:1.69000006px;font-style:normal;font-weight:400;text-anchor:middle;fill:#000;font-family:sans">3</text><polyline id="polyline3277" points="29.95 11.383 22.817 11.383" transform="translate(-4.7778849,0.19964079)" style="fill:none;stroke:#000;stroke-width:.1;stroke-dasharray:1,1"/><polyline id="polyline3279" points="2.817 11.383 9.95 11.383" transform="translate(-4.7778849,0.19964079)" style="fill:none;stroke:#000;stroke-width:.1;stroke-dasharray:1,1"/><ellipse id="ellipse3281" cx="1.383" cy="11.383" rx="1.383" ry="1.383" transform="translate(-4.7778849,0.19964079)" style="fill:none;stroke:#000;stroke-width:.1"/><text id="text3283" x="-3.395" y="12.052" font-size="1.69" font-style="normal" font-weight="400" style="font-size:1.69000006px;font-style:normal;font-weight:400;text-anchor:middle;fill:#000;font-family:sans">4</text><ellipse id="ellipse3285" cx="11.383" cy="11.383" rx="1.383" ry="1.383" transform="translate(-4.7778849,0.19964079)" style="fill:none;stroke:#000;stroke-width:.1"/><text id="text3287" x="6.605" y="12.052" font-size="1.69" font-style="normal" font-weight="400" style="font-size:1.69000006px;font-style:normal;font-weight:400;text-anchor:middle;fill:#000;font-family:sans">5</text><polyline id="polyline3289" points="12.767 11.383 19.513 11.383" transform="translate(-4.7778849,0.19964079)" style="fill:none;stroke:#000;stroke-width:.1"/><polygon id="polygon3291" points="19.388 11.633 19.513 11.383 19.388 11.133 19.888 11.383" transform="translate(-4.7778849,0.19964079)" style="fill:#000;stroke:none"/><polygon id="polygon3293" points="19.388 11.633 19.513 11.383 19.388 11.133 19.888 11.383" transform="translate(-4.7778849,0.19964079)" style="fill:none;stroke:#000;stroke-width:.1"/><ellipse id="ellipse3295" cx="21.383" cy="11.383" rx="1.383" ry="1.383" transform="translate(-4.7778849,0.19964079)" style="fill:none;stroke:#000;stroke-width:.1"/><text id="text3297" x="16.605" y="12.052" font-size="1.69" font-style="normal" font-weight="400" style="font-size:1.69000006px;font-style:normal;font-weight:400;text-anchor:middle;fill:#000;font-family:sans">6</text><ellipse id="ellipse3299" cx="31.383" cy="11.383" rx="1.383" ry="1.383" transform="translate(-4.7778849,0.19964079)" style="fill:none;stroke:#000;stroke-width:.1"/><text id="text3301" x="26.605" y="12.052" font-size="1.69" font-style="normal" font-weight="400" style="font-size:1.69000006px;font-style:normal;font-weight:400;text-anchor:middle;fill:#000;font-family:sans">7</text><text id="text3303" x="11.222" y="15.669" font-size="1.69" font-style="normal" font-weight="400" style="font-size:1.69000006px;font-style:normal;font-weight:400;text-anchor:middle;fill:#000;font-family:sans">(a)</text><polyline id="polyline3305" points="-7.183 23.383 -.05 23.383" transform="translate(-4.7778849,0.19964079)" style="fill:none;stroke:#000;stroke-width:.1;stroke-dasharray:1,1"/><ellipse id="ellipse3307" cx="-8.617" cy="23.383" rx="1.383" ry="1.383" transform="translate(-4.7778849,0.19964079)" style="fill:none;stroke:#000;stroke-width:.1"/><text id="text3309" x="-13.395" y="24.052" font-size="1.69" font-style="normal" font-weight="400" style="font-size:1.69000006px;font-style:normal;font-weight:400;text-anchor:middle;fill:#000;font-family:sans">0</text><ellipse id="ellipse3311" cx="1.383" cy="23.383" rx="1.383" ry="1.383" transform="translate(-4.7778849,0.19964079)" style="fill:none;stroke:#000;stroke-width:.1"/><text id="text3313" x="-3.395" y="24.052" font-size="1.69" font-style="normal" font-weight="400" style="font-size:1.69000006px;font-style:normal;font-weight:400;text-anchor:middle;fill:#000;font-family:sans">1</text><polyline id="polyline3315" points="2.767 23.383 9.513 23.383" transform="translate(-4.7778849,0.19964079)" style="fill:none;stroke:#000;stroke-width:.1"/><polygon id="polygon3317" points="9.388 23.633 9.513 23.383 9.388 23.133 9.888 23.383" transform="translate(-4.7778849,0.19964079)" style="fill:#000;stroke:none"/><polygon id="polygon3319" points="9.388 23.633 9.513 23.383 9.388 23.133 9.888 23.383" transform="translate(-4.7778849,0.19964079)" style="fill:none;stroke:#000;stroke-width:.1"/><ellipse id="ellipse3321" cx="11.383" cy="23.383" rx="1.383" ry="1.383" transform="translate(-4.7778849,0.19964079)" style="fill:none;stroke:#000;stroke-width:.1"/><text id="text3323" x="6.605" y="24.052" font-size="1.69" font-style="normal" font-weight="400" style="font-size:1.69000006px;font-style:normal;font-weight:400;text-anchor:middle;fill:#000;font-family:sans">2</text><ellipse id="ellipse3325" cx="21.383" cy="23.383" rx="1.383" ry="1.383" transform="translate(-4.7778849,0.19964079)" style="fill:none;stroke:#000;stroke-width:.1"/><text id="text3327" x="16.605" y="24.052" font-size="1.69" font-style="normal" font-weight="400" style="font-size:1.69000006px;font-style:normal;font-weight:400;text-anchor:middle;fill:#000;font-family:sans">3</text><polyline id="polyline3329" points="32.817 23.383 39.95 23.383" transform="translate(-4.7778849,0.19964079)" style="fill:none;stroke:#000;stroke-width:.1;stroke-dasharray:1,1"/><ellipse id="ellipse3331" cx="31.383" cy="23.383" rx="1.383" ry="1.383" transform="translate(-4.7778849,0.19964079)" style="fill:none;stroke:#000;stroke-width:.1"/><text id="text3333" x="26.605" y="24.052" font-size="1.69" font-style="normal" font-weight="400" style="font-size:1.69000006px;font-style:normal;font-weight:400;text-anchor:middle;fill:#000;font-family:sans">4</text><ellipse id="ellipse3335" cx="41.383" cy="23.383" rx="1.383" ry="1.383" transform="translate(-4.7778849,0.19964079)" style="fill:none;stroke:#000;stroke-width:.1"/><text id="text3337" x="36.605" y="24.052" font-size="1.69" font-style="normal" font-weight="400" style="font-size:1.69000006px;font-style:normal;font-weight:400;text-anchor:middle;fill:#000;font-family:sans">5</text><polyline id="polyline3339" points="12.767 23.383 19.513 23.383" transform="translate(-4.7778849,0.19964079)" style="fill:none;stroke:#000;stroke-width:.1"/><polygon id="polygon3341" points="19.388 23.633 19.513 23.383 19.388 23.133 19.888 23.383" transform="translate(-4.7778849,0.19964079)" style="fill:#000;stroke:none"/><polygon id="polygon3343" points="19.388 23.633 19.513 23.383 19.388 23.133 19.888 23.383" transform="translate(-4.7778849,0.19964079)" style="fill:none;stroke:#000;stroke-width:.1"/><polyline id="polyline3345" points="22.767 23.383 29.513 23.383" transform="translate(-4.7778849,0.19964079)" style="fill:none;stroke:#000;stroke-width:.1"/><polygon id="polygon3347" points="29.388 23.633 29.513 23.383 29.388 23.133 29.888 23.383" transform="translate(-4.7778849,0.19964079)" style="fill:#000;stroke:none"/><polygon id="polygon3349" points="29.388 23.633 29.513 23.383 29.388 23.133 29.888 23.383" transform="translate(-4.7778849,0.19964079)" style="fill:none;stroke:#000;stroke-width:.1"/><text id="text3351" x="11.222" y="27.669" font-size="1.69" font-style="normal" font-weight="400" style="font-size:1.69000006px;font-style:normal;font-weight:400;text-anchor:middle;fill:#000;font-family:sans">(b)</text></svg>