<svg xmlns="http://www.w3.org/2000/svg" xmlns:svg="http://www.w3.org/2000/svg" id="svg2" width="650" height="350" version="1.1" viewBox="0 0 650 350"><defs id="defs4"><marker style="overflow:visible" id="marker11504" orient="auto" refX="0" refY="0"><path style="fill:#000;fill-opacity:1;fill-rule:evenodd;stroke:#000;stroke-width:.625;stroke-linejoin:round;stroke-opacity:1" id="path11506" d="M 8.7185878,4.0337352 -2.2072895,0.01601326 8.7185884,-4.0017078 c -1.7454984,2.3720609 -1.7354408,5.6174519 -6e-7,8.035443 z" transform="matrix(1.1,0,0,1.1,1.1,0)"/></marker><marker style="overflow:visible" id="marker11446" orient="auto" refX="0" refY="0"><path style="fill:#000;fill-opacity:1;fill-rule:evenodd;stroke:#000;stroke-width:.625;stroke-linejoin:round;stroke-opacity:1" id="path11448" d="M 8.7185878,4.0337352 -2.2072895,0.01601326 8.7185884,-4.0017078 c -1.7454984,2.3720609 -1.7354408,5.6174519 -6e-7,8.035443 z" transform="matrix(-1.1,0,0,-1.1,-1.1,0)"/></marker><marker style="overflow:visible" id="marker11386" orient="auto" refX="0" refY="0"><path style="fill:#00f;fill-opacity:1;fill-rule:evenodd;stroke:#00f;stroke-width:.625;stroke-linejoin:round;stroke-opacity:1" id="path11388" d="M 8.7185878,4.0337352 -2.2072895,0.01601326 8.7185884,-4.0017078 c -1.7454984,2.3720609 -1.7354408,5.6174519 -6e-7,8.035443 z" transform="matrix(-1.1,0,0,-1.1,-1.1,0)"/></marker><marker id="Arrow2Lstart" orient="auto" refX="0" refY="0" style="overflow:visible"><path id="path4182" d="M 8.7185878,4.0337352 -2.2072895,0.01601326 8.7185884,-4.0017078 c -1.7454984,2.3720609 -1.7354408,5.6174519 -6e-7,8.035443 z" transform="matrix(1.1,0,0,1.1,1.1,0)" style="fill:red;fill-opacity:1;fill-rule:evenodd;stroke:red;stroke-width:.625;stroke-linejoin:round;stroke-opacity:1"/></marker><marker id="Arrow1Lstart" orient="auto" refX="0" refY="0" style="overflow:visible"><path id="path4164" d="M 0,0 5,-5 -12.5,0 5,5 0,0 Z" transform="matrix(0.8,0,0,0.8,10,0)" style="fill:#000;fill-opacity:1;fill-rule:evenodd;stroke:#000;stroke-width:1pt;stroke-opacity:1"/></marker><marker id="Arrow2Lend" orient="auto" refX="0" refY="0" style="overflow:visible"><path id="path4185" d="M 8.7185878,4.0337352 -2.2072895,0.01601326 8.7185884,-4.0017078 c -1.7454984,2.3720609 -1.7354408,5.6174519 -6e-7,8.035443 z" transform="matrix(-1.1,0,0,-1.1,-1.1,0)" style="fill:red;fill-opacity:1;fill-rule:evenodd;stroke:red;stroke-width:.625;stroke-linejoin:round;stroke-opacity:1"/></marker><marker id="DotL" orient="auto" refX="0" refY="0" style="overflow:visible"><path id="path4225" d="m -2.5,-1 c 0,2.76 -2.24,5 -5,5 -2.76,0 -5,-2.24 -5,-5 0,-2.76 2.24,-5 5,-5 2.76,0 5,2.24 5,5 z" transform="matrix(0.8,0,0,0.8,5.92,0.8)" style="fill:#00f;fill-opacity:1;fill-rule:evenodd;stroke:#00f;stroke-width:1pt;stroke-opacity:1"/></marker></defs><metadata id="metadata7"/><g id="layer1" transform="translate(0,-702.36216)"><text style="font-style:normal;font-variant:normal;font-weight:400;font-stretch:normal;font-size:25px;line-height:125%;font-family:sans-serif;-inkscape-font-specification:'sans-serif, Normal';text-align:start;letter-spacing:0;word-spacing:0;writing-mode:lr-tb;text-anchor:start;fill:#000;fill-opacity:1;stroke:none;stroke-width:1px;stroke-linecap:butt;stroke-linejoin:miter;stroke-opacity:1" id="text5038" x="10.714" y="976.648" xml:space="preserve"><tspan id="tspan5040" x="10.714" y="976.648">Xa, Ya, Za</tspan></text><text style="font-size:25px;font-style:normal;font-variant:normal;font-weight:400;font-stretch:normal;text-align:start;line-height:125%;letter-spacing:0;word-spacing:0;writing-mode:lr-tb;text-anchor:start;fill:#000;fill-opacity:1;stroke:none;font-family:sans-serif;-inkscape-font-specification:'sans-serif, Normal'" id="text5042" x="507.967" y="782.153" xml:space="preserve"><tspan id="tspan5044" x="507.967" y="782.153">Xb, Yb, Zb</tspan></text><path style="fill:none;fill-rule:evenodd;stroke:#00f;stroke-width:1px;stroke-linecap:butt;stroke-linejoin:miter;stroke-opacity:1;marker-start:url(#DotL);marker-end:url(#marker11386)" id="path11154" d="m 140,962.3622 360,-180"/><path style="fill:none;fill-rule:evenodd;stroke:#000;stroke-width:1px;stroke-linecap:butt;stroke-linejoin:miter;stroke-opacity:1" id="path11156" d="m 120,992.3622 400,-200"/><path style="fill:none;fill-rule:evenodd;stroke:#000;stroke-width:1px;stroke-linecap:butt;stroke-linejoin:miter;stroke-opacity:1" id="path11158" d="m 120,952.3622 400,-200"/><path style="fill:none;fill-rule:evenodd;stroke:#000;stroke-width:1px;stroke-linecap:butt;stroke-linejoin:miter;stroke-opacity:1" id="path11160" d="m 500,742.3622 0,80"/><path style="fill:none;fill-rule:evenodd;stroke:#000;stroke-width:1px;stroke-linecap:butt;stroke-linejoin:miter;stroke-opacity:1" id="path11162" d="m 140,922.3622 0,80"/><path style="fill:none;fill-rule:evenodd;stroke:red;stroke-width:.5;stroke-linecap:butt;stroke-linejoin:miter;stroke-miterlimit:4;stroke-dasharray:none;stroke-opacity:1;marker-start:url(#Arrow2Lstart);marker-end:url(#Arrow2Lend)" id="path11164" d="m 420,802.3622 0,40"/><path style="fill:none;fill-rule:evenodd;stroke:#000;stroke-width:.5;stroke-linecap:butt;stroke-linejoin:miter;stroke-miterlimit:4;stroke-dasharray:none;stroke-opacity:1;marker-start:url(#marker11504);marker-end:url(#marker11446)" id="path11438" d="m 435.85426,868.3969 0,50.44643 52.76785,0"/><text style="font-style:normal;font-variant:normal;font-weight:400;font-stretch:normal;font-size:15px;line-height:125%;font-family:sans-serif;-inkscape-font-specification:'sans-serif, Normal';text-align:start;letter-spacing:0;word-spacing:0;writing-mode:lr-tb;text-anchor:start;fill:#000;fill-opacity:1;stroke:none;stroke-width:1px;stroke-linecap:butt;stroke-linejoin:miter;stroke-opacity:1" id="text11826" x="356.421" y="902.522" xml:space="preserve"><tspan id="tspan11828" x="356.421" y="902.522">Minor axis</tspan></text><text style="font-style:normal;font-variant:normal;font-weight:400;font-stretch:normal;font-size:15px;line-height:125%;font-family:sans-serif;-inkscape-font-specification:'sans-serif, Normal';text-align:start;letter-spacing:0;word-spacing:0;writing-mode:lr-tb;text-anchor:start;fill:#000;fill-opacity:1;stroke:none;stroke-width:1px;stroke-linecap:butt;stroke-linejoin:miter;stroke-opacity:1" id="text11830" x="440.497" y="935.629" xml:space="preserve"><tspan id="tspan11832" x="440.497" y="935.629">Major axis</tspan></text><text style="font-style:normal;font-variant:normal;font-weight:400;font-stretch:normal;font-size:15px;line-height:125%;font-family:sans-serif;-inkscape-font-specification:'sans-serif, Normal';text-align:start;letter-spacing:0;word-spacing:0;writing-mode:lr-tb;text-anchor:start;fill:#000;fill-opacity:1;stroke:none;stroke-width:1px;stroke-linecap:butt;stroke-linejoin:miter;stroke-opacity:1" id="text12338" x="-169.503" y="901.962" transform="matrix(0.89236263,-0.45131911,0.45131911,0.89236263,0,0)" xml:space="preserve"><tspan id="tspan12340" x="-169.503" y="901.962">Edge 0</tspan></text><text style="font-style:normal;font-variant:normal;font-weight:400;font-stretch:normal;font-size:15px;line-height:125%;font-family:sans-serif;-inkscape-font-specification:'sans-serif, Normal';text-align:start;letter-spacing:0;word-spacing:0;writing-mode:lr-tb;text-anchor:start;fill:#000;fill-opacity:1;stroke:none;stroke-width:1px;stroke-linecap:butt;stroke-linejoin:miter;stroke-opacity:1" id="text12338-2" x="-186.325" y="954.13" transform="matrix(0.89236263,-0.45131911,0.45131911,0.89236263,0,0)" xml:space="preserve"><tspan id="tspan12340-0" x="-186.325" y="954.13">Edge 1</tspan></text><text style="font-style:normal;font-variant:normal;font-weight:400;font-stretch:normal;font-size:15px;line-height:125%;font-family:sans-serif;-inkscape-font-specification:'sans-serif, Normal';text-align:start;letter-spacing:0;word-spacing:0;writing-mode:lr-tb;text-anchor:start;fill:#000;fill-opacity:1;stroke:none;stroke-width:1px;stroke-linecap:butt;stroke-linejoin:miter;stroke-opacity:1" id="text12338-1" x="52.507" y="971.175" transform="matrix(0.89236263,-0.45131911,0.45131911,0.89236263,0,0)" xml:space="preserve"><tspan id="tspan12340-7" x="52.507" y="971.175">Edge 3</tspan></text><text style="font-style:normal;font-variant:normal;font-weight:400;font-stretch:normal;font-size:15px;line-height:125%;font-family:sans-serif;-inkscape-font-specification:'sans-serif, Normal';text-align:start;letter-spacing:0;word-spacing:0;writing-mode:lr-tb;text-anchor:start;fill:#000;fill-opacity:1;stroke:none;stroke-width:1px;stroke-linecap:butt;stroke-linejoin:miter;stroke-opacity:1" id="text12338-3" x="-325.912" y="883.421" transform="matrix(0.89236263,-0.45131911,0.45131911,0.89236263,0,0)" xml:space="preserve"><tspan id="tspan12340-00" x="-325.912" y="883.421">Edge 2</tspan></text><text style="font-style:normal;font-variant:normal;font-weight:400;font-stretch:normal;font-size:15px;line-height:125%;font-family:sans-serif;-inkscape-font-specification:'sans-serif, Normal';text-align:start;letter-spacing:0;word-spacing:0;writing-mode:lr-tb;text-anchor:start;fill:red;fill-opacity:1;stroke:none;stroke-width:1px;stroke-linecap:butt;stroke-linejoin:miter;stroke-opacity:1" id="text12338-1-0" x="-72.01" y="920.14" transform="matrix(0.89236263,-0.45131911,0.45131911,0.89236263,0,0)" xml:space="preserve"><tspan id="tspan12340-7-1" x="-72.01" y="920.14">Line width</tspan></text><text style="font-style:normal;font-variant:normal;font-weight:400;font-stretch:normal;font-size:15px;line-height:125%;font-family:sans-serif;-inkscape-font-specification:'sans-serif, Normal';text-align:start;letter-spacing:0;word-spacing:0;writing-mode:lr-tb;text-anchor:start;fill:#00f;fill-opacity:1;stroke:none;stroke-width:1px;stroke-linecap:butt;stroke-linejoin:miter;stroke-opacity:1" id="text12338-1-0-9" x="-275.9" y="920.084" transform="matrix(0.89236263,-0.45131911,0.45131911,0.89236263,0,0)" xml:space="preserve"><tspan id="tspan12340-7-1-6" x="-275.9" y="920.084">Original line</tspan></text></g></svg>