<svg xmlns="http://www.w3.org/2000/svg" xmlns:ev="http://www.w3.org/2001/xml-events" xmlns:xlink="http://www.w3.org/1999/xlink" width="498.666" height="405.713" class="st9" color-interpolation-filters="sRGB" viewBox="0 0 374 304.285" xml:space="preserve"><title>Vulkan Sparse Image</title><style type="text/css">.st1{fill:#d8d8d8;stroke:#c00000;stroke-width:.25}.st2{fill:#5b9bd5;fill-opacity:.2;stroke:#2e75b5;stroke-width:.5}.st3{fill:none;stroke:none;stroke-width:.25}.st4,.st5{fill:#000;font-family:Calibri;font-size:1.00001em}.st5{fill:#c00000;font-size:.75em}.st6{fill:#d8d8d8;stroke:none;stroke-width:.25}.st7{fill:#70ad47;fill-opacity:.2;stroke:#538135;stroke-width:.5}.st8{fill:#000;font-family:Calibri;font-size:.75em}.st9{fill:none;fill-rule:evenodd;font-size:12px;overflow:visible;stroke-linecap:square;stroke-miterlimit:3}</style><g><title>Page-1</title><g id="shape3258-1" transform="translate(170.821,-78.6163)"><title>Square.3258</title><rect width="18" height="18" x="0" y="286.285" class="st1"/></g><g id="shape3259-3" transform="translate(188.688,-78.6163)"><title>Square.3259</title><rect width="18" height="18" x="0" y="286.285" class="st1"/></g><g id="shape3260-5" transform="translate(170.821,-60.75)"><title>Square.3260</title><rect width="18" height="18" x="0" y="286.285" class="st1"/></g><g id="shape3261-7" transform="translate(188.688,-60.75)"><title>Square.3261</title><rect width="18" height="18" x="0" y="286.285" class="st1"/></g><g id="shape738-9" transform="translate(170.821,-74.1163)"><title>Square.738</title><rect width="22.5" height="22.5" x="0" y="281.785" class="st2"/></g><g id="shape3188-11" transform="translate(170.821,-135.25)"><title>Square.3188</title><rect width="18" height="18" x="0" y="286.285" class="st1"/></g><g id="shape3189-13" transform="translate(188.688,-135.25)"><title>Square.3189</title><rect width="18" height="18" x="0" y="286.285" class="st1"/></g><g id="shape3190-15" transform="translate(206.688,-135.25)"><title>Square.3190</title><rect width="18" height="18" x="0" y="286.285" class="st1"/></g><g id="shape3191-17" transform="translate(170.821,-117.339)"><title>Square.3191</title><rect width="18" height="18" x="0" y="286.285" class="st1"/></g><g id="shape3192-19" transform="translate(188.688,-117.339)"><title>Square.3192</title><rect width="18" height="18" x="0" y="286.285" class="st1"/></g><g id="shape3193-21" transform="translate(206.688,-117.339)"><title>Square.3193</title><rect width="18" height="18" x="0" y="286.285" class="st1"/></g><g id="shape3194-23" transform="translate(170.821,-99.4728)"><title>Square.3194</title><rect width="18" height="18" x="0" y="286.285" class="st1"/></g><g id="shape3195-25" transform="translate(188.688,-99.4728)"><title>Square.3195</title><rect width="18" height="18" x="0" y="286.285" class="st1"/></g><g id="shape3196-27" transform="translate(206.688,-99.4728)"><title>Square.3196</title><rect width="18" height="18" x="0" y="286.285" class="st1"/></g><g id="shape3167-29" transform="translate(242.575,-228.66)"><title>Square.3167</title><rect width="18" height="18" x="0" y="286.285" class="st1"/></g><g id="shape3161-31" transform="translate(170.821,-228.66)"><title>Square.3161</title><rect width="18" height="18" x="0" y="286.285" class="st1"/></g><g id="shape3162-33" transform="translate(188.688,-228.66)"><title>Square.3162</title><rect width="18" height="18" x="0" y="286.285" class="st1"/></g><g id="shape3165-35" transform="translate(206.688,-228.66)"><title>Square.3165</title><rect width="18" height="18" x="0" y="286.285" class="st1"/></g><g id="shape3166-37" transform="translate(224.554,-228.66)"><title>Square.3166</title><rect width="18" height="18" x="0" y="286.285" class="st1"/></g><g id="shape3172-39" transform="translate(242.575,-210.749)"><title>Square.3172</title><rect width="18" height="18" x="0" y="286.285" class="st1"/></g><g id="shape3168-41" transform="translate(170.821,-210.749)"><title>Square.3168</title><rect width="18" height="18" x="0" y="286.285" class="st1"/></g><g id="shape3169-43" transform="translate(188.688,-210.749)"><title>Square.3169</title><rect width="18" height="18" x="0" y="286.285" class="st1"/></g><g id="shape3170-45" transform="translate(206.688,-210.749)"><title>Square.3170</title><rect width="18" height="18" x="0" y="286.285" class="st1"/></g><g id="shape3171-47" transform="translate(224.554,-210.749)"><title>Square.3171</title><rect width="18" height="18" x="0" y="286.285" class="st1"/></g><g id="shape3177-49" transform="translate(242.575,-192.779)"><title>Square.3177</title><rect width="18" height="18" x="0" y="286.285" class="st1"/></g><g id="shape3173-51" transform="translate(170.821,-192.779)"><title>Square.3173</title><rect width="18" height="18" x="0" y="286.285" class="st1"/></g><g id="shape3174-53" transform="translate(188.688,-192.779)"><title>Square.3174</title><rect width="18" height="18" x="0" y="286.285" class="st1"/></g><g id="shape3175-55" transform="translate(206.688,-192.779)"><title>Square.3175</title><rect width="18" height="18" x="0" y="286.285" class="st1"/></g><g id="shape3176-57" transform="translate(224.554,-192.779)"><title>Square.3176</title><rect width="18" height="18" x="0" y="286.285" class="st1"/></g><g id="shape3182-59" transform="translate(242.575,-174.868)"><title>Square.3182</title><rect width="18" height="18" x="0" y="286.285" class="st1"/></g><g id="shape3178-61" transform="translate(170.821,-174.868)"><title>Square.3178</title><rect width="18" height="18" x="0" y="286.285" class="st1"/></g><g id="shape3179-63" transform="translate(188.688,-174.868)"><title>Square.3179</title><rect width="18" height="18" x="0" y="286.285" class="st1"/></g><g id="shape3180-65" transform="translate(206.688,-174.868)"><title>Square.3180</title><rect width="18" height="18" x="0" y="286.285" class="st1"/></g><g id="shape3181-67" transform="translate(224.554,-174.868)"><title>Square.3181</title><rect width="18" height="18" x="0" y="286.285" class="st1"/></g><g id="shape3187-69" transform="translate(242.575,-157.064)"><title>Square.3187</title><rect width="18" height="18" x="0" y="286.285" class="st1"/></g><g id="shape3183-71" transform="translate(170.821,-157.064)"><title>Square.3183</title><rect width="18" height="18" x="0" y="286.285" class="st1"/></g><g id="shape3184-73" transform="translate(188.688,-157.064)"><title>Square.3184</title><rect width="18" height="18" x="0" y="286.285" class="st1"/></g><g id="shape3185-75" transform="translate(206.688,-157.064)"><title>Square.3185</title><rect width="18" height="18" x="0" y="286.285" class="st1"/></g><g id="shape3186-77" transform="translate(224.554,-157.064)"><title>Square.3186</title><rect width="18" height="18" x="0" y="286.285" class="st1"/></g><g id="shape728-79" transform="translate(170.821,-157.005)"><title>Square.728</title><rect width="89.655" height="89.655" x="0" y="214.63" class="st2"/></g><g id="shape3158-81" transform="translate(18.25,-268.035)"><title>Sheet.3158</title><desc>Multiple Aspect Sparse Image</desc><rect width="337.5" height="18" x="0" y="286.285" class="st3"/><text x="96.42" y="298.89" class="st4">Multiple Aspect Sparse Image</text></g><g id="shape3127-84" transform="translate(18.25,-192.66)"><title>Sheet.3127</title><desc>Mip Level 0</desc><rect width="53.571" height="18" x="0" y="286.285" class="st3"/><text x="7.58" y="297.99" class="st5">Mip Level 0</text></g><g id="shape3128-87" transform="translate(18.25,-121.785)"><title>Sheet.3128</title><desc>Mip Level 1</desc><rect width="53.571" height="18" x="0" y="286.285" class="st3"/><text x="7.58" y="297.99" class="st5">Mip Level 1</text></g><g id="shape1-90" transform="translate(76.3214,-237.66)"><title>Square</title><rect width="9" height="9" x="0" y="295.285" class="st1"/></g><g id="shape2-92" transform="translate(85.3214,-237.66)"><title>Square.2</title><rect width="9" height="9" x="0" y="295.285" class="st1"/></g><g id="shape3-94" transform="translate(94.3214,-237.66)"><title>Square.3</title><rect width="9" height="9" x="0" y="295.285" class="st1"/></g><g id="shape4-96" transform="translate(103.321,-237.66)"><title>Square.4</title><rect width="9" height="9" x="0" y="295.285" class="st1"/></g><g id="shape5-98" transform="translate(112.321,-237.66)"><title>Square.5</title><rect width="9" height="9" x="0" y="295.285" class="st1"/></g><g id="shape6-100" transform="translate(121.321,-237.66)"><title>Square.6</title><rect width="9" height="9" x="0" y="295.285" class="st1"/></g><g id="shape7-102" transform="translate(130.321,-237.66)"><title>Square.7</title><rect width="9" height="9" x="0" y="295.285" class="st1"/></g><g id="shape8-104" transform="translate(139.321,-237.66)"><title>Square.8</title><rect width="9" height="9" x="0" y="295.285" class="st1"/></g><g id="shape9-106" transform="translate(148.321,-237.66)"><title>Square.9</title><rect width="9" height="9" x="0" y="295.285" class="st1"/></g><g id="shape10-108" transform="translate(157.321,-237.66)"><title>Square.10</title><rect width="9" height="9" x="0" y="295.285" class="st1"/></g><g id="shape11-110" transform="translate(76.3214,-228.66)"><title>Square.11</title><rect width="9" height="9" x="0" y="295.285" class="st1"/></g><g id="shape12-112" transform="translate(85.3214,-228.66)"><title>Square.12</title><rect width="9" height="9" x="0" y="295.285" class="st1"/></g><g id="shape13-114" transform="translate(94.3214,-228.66)"><title>Square.13</title><rect width="9" height="9" x="0" y="295.285" class="st1"/></g><g id="shape14-116" transform="translate(103.321,-228.66)"><title>Square.14</title><rect width="9" height="9" x="0" y="295.285" class="st1"/></g><g id="shape15-118" transform="translate(112.321,-228.66)"><title>Square.15</title><rect width="9" height="9" x="0" y="295.285" class="st1"/></g><g id="shape16-120" transform="translate(121.321,-228.66)"><title>Square.16</title><rect width="9" height="9" x="0" y="295.285" class="st1"/></g><g id="shape17-122" transform="translate(130.321,-228.66)"><title>Square.17</title><rect width="9" height="9" x="0" y="295.285" class="st1"/></g><g id="shape18-124" transform="translate(139.321,-228.66)"><title>Square.18</title><rect width="9" height="9" x="0" y="295.285" class="st1"/></g><g id="shape19-126" transform="translate(148.321,-228.66)"><title>Square.19</title><rect width="9" height="9" x="0" y="295.285" class="st1"/></g><g id="shape20-128" transform="translate(157.321,-228.66)"><title>Square.20</title><rect width="9" height="9" x="0" y="295.285" class="st1"/></g><g id="shape21-130" transform="translate(76.3214,-219.66)"><title>Square.21</title><rect width="9" height="9" x="0" y="295.285" class="st1"/></g><g id="shape22-132" transform="translate(85.3214,-219.66)"><title>Square.22</title><rect width="9" height="9" x="0" y="295.285" class="st1"/></g><g id="shape23-134" transform="translate(94.3214,-219.66)"><title>Square.23</title><rect width="9" height="9" x="0" y="295.285" class="st1"/></g><g id="shape24-136" transform="translate(103.321,-219.66)"><title>Square.24</title><rect width="9" height="9" x="0" y="295.285" class="st1"/></g><g id="shape25-138" transform="translate(112.321,-219.66)"><title>Square.25</title><rect width="9" height="9" x="0" y="295.285" class="st1"/></g><g id="shape26-140" transform="translate(121.321,-219.66)"><title>Square.26</title><rect width="9" height="9" x="0" y="295.285" class="st1"/></g><g id="shape27-142" transform="translate(130.321,-219.66)"><title>Square.27</title><rect width="9" height="9" x="0" y="295.285" class="st1"/></g><g id="shape28-144" transform="translate(139.321,-219.66)"><title>Square.28</title><rect width="9" height="9" x="0" y="295.285" class="st1"/></g><g id="shape29-146" transform="translate(148.321,-219.66)"><title>Square.29</title><rect width="9" height="9" x="0" y="295.285" class="st1"/></g><g id="shape30-148" transform="translate(157.321,-219.66)"><title>Square.30</title><rect width="9" height="9" x="0" y="295.285" class="st1"/></g><g id="shape31-150" transform="translate(76.3214,-210.66)"><title>Square.31</title><rect width="9" height="9" x="0" y="295.285" class="st1"/></g><g id="shape32-152" transform="translate(85.3214,-210.66)"><title>Square.32</title><rect width="9" height="9" x="0" y="295.285" class="st1"/></g><g id="shape33-154" transform="translate(94.3214,-210.66)"><title>Square.33</title><rect width="9" height="9" x="0" y="295.285" class="st1"/></g><g id="shape34-156" transform="translate(103.321,-210.66)"><title>Square.34</title><rect width="9" height="9" x="0" y="295.285" class="st1"/></g><g id="shape35-158" transform="translate(112.321,-210.66)"><title>Square.35</title><rect width="9" height="9" x="0" y="295.285" class="st1"/></g><g id="shape36-160" transform="translate(121.321,-210.66)"><title>Square.36</title><rect width="9" height="9" x="0" y="295.285" class="st1"/></g><g id="shape37-162" transform="translate(130.321,-210.66)"><title>Square.37</title><rect width="9" height="9" x="0" y="295.285" class="st1"/></g><g id="shape38-164" transform="translate(139.321,-210.66)"><title>Square.38</title><rect width="9" height="9" x="0" y="295.285" class="st1"/></g><g id="shape39-166" transform="translate(148.321,-210.66)"><title>Square.39</title><rect width="9" height="9" x="0" y="295.285" class="st1"/></g><g id="shape40-168" transform="translate(157.321,-210.66)"><title>Square.40</title><rect width="9" height="9" x="0" y="295.285" class="st1"/></g><g id="shape41-170" transform="translate(76.3214,-201.66)"><title>Square.41</title><rect width="9" height="9" x="0" y="295.285" class="st1"/></g><g id="shape42-172" transform="translate(85.3214,-201.66)"><title>Square.42</title><rect width="9" height="9" x="0" y="295.285" class="st1"/></g><g id="shape43-174" transform="translate(94.3214,-201.66)"><title>Square.43</title><rect width="9" height="9" x="0" y="295.285" class="st1"/></g><g id="shape44-176" transform="translate(103.321,-201.66)"><title>Square.44</title><rect width="9" height="9" x="0" y="295.285" class="st1"/></g><g id="shape45-178" transform="translate(112.321,-201.66)"><title>Square.45</title><rect width="9" height="9" x="0" y="295.285" class="st1"/></g><g id="shape46-180" transform="translate(121.321,-201.66)"><title>Square.46</title><rect width="9" height="9" x="0" y="295.285" class="st1"/></g><g id="shape47-182" transform="translate(130.321,-201.66)"><title>Square.47</title><rect width="9" height="9" x="0" y="295.285" class="st1"/></g><g id="shape48-184" transform="translate(139.321,-201.66)"><title>Square.48</title><rect width="9" height="9" x="0" y="295.285" class="st1"/></g><g id="shape49-186" transform="translate(148.321,-201.66)"><title>Square.49</title><rect width="9" height="9" x="0" y="295.285" class="st1"/></g><g id="shape50-188" transform="translate(157.321,-201.66)"><title>Square.50</title><rect width="9" height="9" x="0" y="295.285" class="st1"/></g><g id="shape51-190" transform="translate(76.3214,-192.66)"><title>Square.51</title><rect width="9" height="9" x="0" y="295.285" class="st1"/></g><g id="shape52-192" transform="translate(85.3214,-192.66)"><title>Square.52</title><rect width="9" height="9" x="0" y="295.285" class="st1"/></g><g id="shape53-194" transform="translate(94.3214,-192.66)"><title>Square.53</title><rect width="9" height="9" x="0" y="295.285" class="st1"/></g><g id="shape54-196" transform="translate(103.321,-192.66)"><title>Square.54</title><rect width="9" height="9" x="0" y="295.285" class="st1"/></g><g id="shape55-198" transform="translate(112.321,-192.66)"><title>Square.55</title><rect width="9" height="9" x="0" y="295.285" class="st1"/></g><g id="shape56-200" transform="translate(121.321,-192.66)"><title>Square.56</title><rect width="9" height="9" x="0" y="295.285" class="st1"/></g><g id="shape57-202" transform="translate(130.321,-192.66)"><title>Square.57</title><rect width="9" height="9" x="0" y="295.285" class="st1"/></g><g id="shape58-204" transform="translate(139.321,-192.66)"><title>Square.58</title><rect width="9" height="9" x="0" y="295.285" class="st1"/></g><g id="shape59-206" transform="translate(148.321,-192.66)"><title>Square.59</title><rect width="9" height="9" x="0" y="295.285" class="st1"/></g><g id="shape60-208" transform="translate(157.321,-192.66)"><title>Square.60</title><rect width="9" height="9" x="0" y="295.285" class="st1"/></g><g id="shape61-210" transform="translate(76.3214,-183.66)"><title>Square.61</title><rect width="9" height="9" x="0" y="295.285" class="st1"/></g><g id="shape62-212" transform="translate(85.3214,-183.66)"><title>Square.62</title><rect width="9" height="9" x="0" y="295.285" class="st1"/></g><g id="shape63-214" transform="translate(94.3214,-183.66)"><title>Square.63</title><rect width="9" height="9" x="0" y="295.285" class="st1"/></g><g id="shape64-216" transform="translate(103.321,-183.66)"><title>Square.64</title><rect width="9" height="9" x="0" y="295.285" class="st1"/></g><g id="shape65-218" transform="translate(112.321,-183.66)"><title>Square.65</title><rect width="9" height="9" x="0" y="295.285" class="st1"/></g><g id="shape66-220" transform="translate(121.321,-183.66)"><title>Square.66</title><rect width="9" height="9" x="0" y="295.285" class="st1"/></g><g id="shape67-222" transform="translate(130.321,-183.66)"><title>Square.67</title><rect width="9" height="9" x="0" y="295.285" class="st1"/></g><g id="shape68-224" transform="translate(139.321,-183.66)"><title>Square.68</title><rect width="9" height="9" x="0" y="295.285" class="st1"/></g><g id="shape69-226" transform="translate(148.321,-183.66)"><title>Square.69</title><rect width="9" height="9" x="0" y="295.285" class="st1"/></g><g id="shape70-228" transform="translate(157.321,-183.66)"><title>Square.70</title><rect width="9" height="9" x="0" y="295.285" class="st1"/></g><g id="shape71-230" transform="translate(76.3214,-174.66)"><title>Square.71</title><rect width="9" height="9" x="0" y="295.285" class="st1"/></g><g id="shape72-232" transform="translate(85.3214,-174.66)"><title>Square.72</title><rect width="9" height="9" x="0" y="295.285" class="st1"/></g><g id="shape73-234" transform="translate(94.3214,-174.66)"><title>Square.73</title><rect width="9" height="9" x="0" y="295.285" class="st1"/></g><g id="shape74-236" transform="translate(103.321,-174.66)"><title>Square.74</title><rect width="9" height="9" x="0" y="295.285" class="st1"/></g><g id="shape75-238" transform="translate(112.321,-174.66)"><title>Square.75</title><rect width="9" height="9" x="0" y="295.285" class="st1"/></g><g id="shape76-240" transform="translate(121.321,-174.66)"><title>Square.76</title><rect width="9" height="9" x="0" y="295.285" class="st1"/></g><g id="shape77-242" transform="translate(130.321,-174.66)"><title>Square.77</title><rect width="9" height="9" x="0" y="295.285" class="st1"/></g><g id="shape78-244" transform="translate(139.321,-174.66)"><title>Square.78</title><rect width="9" height="9" x="0" y="295.285" class="st1"/></g><g id="shape79-246" transform="translate(148.321,-174.66)"><title>Square.79</title><rect width="9" height="9" x="0" y="295.285" class="st1"/></g><g id="shape80-248" transform="translate(157.321,-174.66)"><title>Square.80</title><rect width="9" height="9" x="0" y="295.285" class="st1"/></g><g id="shape81-250" transform="translate(76.3214,-165.66)"><title>Square.81</title><rect width="9" height="9" x="0" y="295.285" class="st1"/></g><g id="shape82-252" transform="translate(85.3214,-165.66)"><title>Square.82</title><rect width="9" height="9" x="0" y="295.285" class="st1"/></g><g id="shape83-254" transform="translate(94.3214,-165.66)"><title>Square.83</title><rect width="9" height="9" x="0" y="295.285" class="st1"/></g><g id="shape84-256" transform="translate(103.321,-165.66)"><title>Square.84</title><rect width="9" height="9" x="0" y="295.285" class="st1"/></g><g id="shape85-258" transform="translate(112.321,-165.66)"><title>Square.85</title><rect width="9" height="9" x="0" y="295.285" class="st1"/></g><g id="shape86-260" transform="translate(121.321,-165.66)"><title>Square.86</title><rect width="9" height="9" x="0" y="295.285" class="st1"/></g><g id="shape87-262" transform="translate(130.321,-165.66)"><title>Square.87</title><rect width="9" height="9" x="0" y="295.285" class="st1"/></g><g id="shape88-264" transform="translate(139.321,-165.66)"><title>Square.88</title><rect width="9" height="9" x="0" y="295.285" class="st1"/></g><g id="shape89-266" transform="translate(148.321,-165.66)"><title>Square.89</title><rect width="9" height="9" x="0" y="295.285" class="st1"/></g><g id="shape90-268" transform="translate(157.321,-165.66)"><title>Square.90</title><rect width="9" height="9" x="0" y="295.285" class="st1"/></g><g id="shape91-270" transform="translate(76.3214,-156.66)"><title>Square.91</title><rect width="9" height="9" x="0" y="295.285" class="st1"/></g><g id="shape92-272" transform="translate(85.3214,-156.66)"><title>Square.92</title><rect width="9" height="9" x="0" y="295.285" class="st1"/></g><g id="shape93-274" transform="translate(94.3214,-156.66)"><title>Square.93</title><rect width="9" height="9" x="0" y="295.285" class="st1"/></g><g id="shape94-276" transform="translate(103.321,-156.66)"><title>Square.94</title><rect width="9" height="9" x="0" y="295.285" class="st1"/></g><g id="shape95-278" transform="translate(112.321,-156.66)"><title>Square.95</title><rect width="9" height="9" x="0" y="295.285" class="st1"/></g><g id="shape96-280" transform="translate(121.321,-156.66)"><title>Square.96</title><rect width="9" height="9" x="0" y="295.285" class="st1"/></g><g id="shape97-282" transform="translate(130.321,-156.66)"><title>Square.97</title><rect width="9" height="9" x="0" y="295.285" class="st1"/></g><g id="shape98-284" transform="translate(139.321,-156.66)"><title>Square.98</title><rect width="9" height="9" x="0" y="295.285" class="st1"/></g><g id="shape99-286" transform="translate(148.321,-156.66)"><title>Square.99</title><rect width="9" height="9" x="0" y="295.285" class="st1"/></g><g id="shape100-288" transform="translate(157.321,-156.66)"><title>Square.100</title><rect width="9" height="9" x="0" y="295.285" class="st1"/></g><g id="shape126-290" transform="translate(76.3214,-144.285)"><title>Square.126</title><rect width="9" height="9" x="0" y="295.285" class="st1"/></g><g id="shape127-292" transform="translate(85.3214,-144.285)"><title>Square.127</title><rect width="9" height="9" x="0" y="295.285" class="st1"/></g><g id="shape128-294" transform="translate(94.3214,-144.285)"><title>Square.128</title><rect width="9" height="9" x="0" y="295.285" class="st1"/></g><g id="shape129-296" transform="translate(103.321,-144.285)"><title>Square.129</title><rect width="9" height="9" x="0" y="295.285" class="st1"/></g><g id="shape130-298" transform="translate(112.321,-144.285)"><title>Square.130</title><rect width="9" height="9" x="0" y="295.285" class="st1"/></g><g id="shape131-300" transform="translate(76.3214,-135.285)"><title>Square.131</title><rect width="9" height="9" x="0" y="295.285" class="st1"/></g><g id="shape132-302" transform="translate(85.3214,-135.285)"><title>Square.132</title><rect width="9" height="9" x="0" y="295.285" class="st1"/></g><g id="shape133-304" transform="translate(94.3214,-135.285)"><title>Square.133</title><rect width="9" height="9" x="0" y="295.285" class="st1"/></g><g id="shape134-306" transform="translate(103.321,-135.285)"><title>Square.134</title><rect width="9" height="9" x="0" y="295.285" class="st1"/></g><g id="shape135-308" transform="translate(112.321,-135.285)"><title>Square.135</title><rect width="9" height="9" x="0" y="295.285" class="st1"/></g><g id="shape136-310" transform="translate(76.3214,-126.285)"><title>Square.136</title><rect width="9" height="9" x="0" y="295.285" class="st1"/></g><g id="shape137-312" transform="translate(85.3214,-126.285)"><title>Square.137</title><rect width="9" height="9" x="0" y="295.285" class="st1"/></g><g id="shape138-314" transform="translate(94.3214,-126.285)"><title>Square.138</title><rect width="9" height="9" x="0" y="295.285" class="st1"/></g><g id="shape139-316" transform="translate(103.321,-126.285)"><title>Square.139</title><rect width="9" height="9" x="0" y="295.285" class="st1"/></g><g id="shape140-318" transform="translate(112.321,-126.285)"><title>Square.140</title><rect width="9" height="9" x="0" y="295.285" class="st1"/></g><g id="shape141-320" transform="translate(76.3214,-117.285)"><title>Square.141</title><rect width="9" height="9" x="0" y="295.285" class="st1"/></g><g id="shape142-322" transform="translate(85.3214,-117.285)"><title>Square.142</title><rect width="9" height="9" x="0" y="295.285" class="st1"/></g><g id="shape143-324" transform="translate(94.3214,-117.285)"><title>Square.143</title><rect width="9" height="9" x="0" y="295.285" class="st1"/></g><g id="shape144-326" transform="translate(103.321,-117.285)"><title>Square.144</title><rect width="9" height="9" x="0" y="295.285" class="st1"/></g><g id="shape145-328" transform="translate(112.321,-117.285)"><title>Square.145</title><rect width="9" height="9" x="0" y="295.285" class="st1"/></g><g id="shape146-330" transform="translate(76.3214,-108.285)"><title>Square.146</title><rect width="9" height="9" x="0" y="295.285" class="st1"/></g><g id="shape147-332" transform="translate(85.3214,-108.285)"><title>Square.147</title><rect width="9" height="9" x="0" y="295.285" class="st1"/></g><g id="shape148-334" transform="translate(94.3214,-108.285)"><title>Square.148</title><rect width="9" height="9" x="0" y="295.285" class="st1"/></g><g id="shape149-336" transform="translate(103.321,-108.285)"><title>Square.149</title><rect width="9" height="9" x="0" y="295.285" class="st1"/></g><g id="shape150-338" transform="translate(112.321,-108.285)"><title>Square.150</title><rect width="9" height="9" x="0" y="295.285" class="st1"/></g><g id="shape727-340" transform="translate(76.3214,-156.66)"><title>Square.727</title><rect width="90" height="90" x="0" y="214.285" class="st2"/></g><g id="shape733-342" transform="translate(76.3214,-108.285)"><title>Square.733</title><rect width="45" height="45" x="0" y="259.285" class="st2"/></g><g id="shape3110-344" transform="translate(76.3214,-246.66)"><title>Sheet.3110</title><desc>Depth Aspect</desc><rect width="90" height="13.5" x="0" y="290.785" class="st3"/><text x="20.36" y="300.24" class="st5">Depth Aspect</text></g><g id="shape3112-347" transform="translate(170.821,-246.66)"><title>Sheet.3112</title><desc>Stencil Aspect</desc><rect width="90" height="13.5" x="0" y="290.785" class="st3"/><text x="19.46" y="300.24" class="st5">Stencil Aspect</text></g><g id="shape3113-350" transform="translate(265.75,-246.66)"><title>Sheet.3113</title><desc>Metadata Aspect</desc><rect width="90" height="13.5" x="0" y="290.785" class="st3"/><text x="13.67" y="300.24" class="st5">Metadata Aspect</text></g><g id="shape3201-353" transform="translate(170.821,-39.0978)"><title>Square.3201</title><rect width="18" height="18" x="0" y="286.285" class="st6"/></g><g id="shape3202-355" transform="translate(188.688,-39.0978)"><title>Square.3202</title><rect width="18" height="18" x="0" y="286.285" class="st1"/></g><g id="shape734-357" transform="translate(170.821,-108.285)"><title>Square.734</title><rect width="45" height="45" x="0" y="259.285" class="st2"/></g><g id="shape3129-359" transform="translate(18.25,-74.0266)"><title>Sheet.3129</title><desc>Mip Level 2</desc><rect width="53.571" height="18" x="0" y="286.285" class="st3"/><text x="7.58" y="297.99" class="st5">Mip Level 2</text></g><g id="shape3132-362" transform="translate(18.25,-18.8478)"><title>Sheet.3132</title><desc>Mip Tail</desc><rect width="53.571" height="18" x="0" y="286.285" class="st3"/><text x="20.22" y="297.99" class="st5">Mip Tail</text></g><g id="shape151-365" transform="translate(76.3214,-87.5266)"><title>Square.151</title><rect width="9" height="9" x="0" y="295.285" class="st1"/></g><g id="shape152-367" transform="translate(85.3214,-87.5266)"><title>Square.152</title><rect width="9" height="9" x="0" y="295.285" class="st1"/></g><g id="shape153-369" transform="translate(94.3214,-87.5266)"><title>Square.153</title><rect width="9" height="9" x="0" y="295.285" class="st1"/></g><g id="shape154-371" transform="translate(76.3214,-78.5266)"><title>Square.154</title><rect width="9" height="9" x="0" y="295.285" class="st1"/></g><g id="shape155-373" transform="translate(85.3214,-78.5266)"><title>Square.155</title><rect width="9" height="9" x="0" y="295.285" class="st1"/></g><g id="shape156-375" transform="translate(94.3214,-78.5266)"><title>Square.156</title><rect width="9" height="9" x="0" y="295.285" class="st1"/></g><g id="shape157-377" transform="translate(76.3214,-69.5266)"><title>Square.157</title><rect width="9" height="9" x="0" y="295.285" class="st1"/></g><g id="shape158-379" transform="translate(85.3214,-69.5266)"><title>Square.158</title><rect width="9" height="9" x="0" y="295.285" class="st1"/></g><g id="shape159-381" transform="translate(94.3214,-69.5266)"><title>Square.159</title><rect width="9" height="9" x="0" y="295.285" class="st1"/></g><g id="shape737-383" transform="translate(76.3214,-74.0266)"><title>Square.737</title><rect width="22.5" height="22.5" x="0" y="281.785" class="st2"/></g><g id="shape3204-385" transform="translate(115.429,-39.0978)"><title>Sheet.3204</title><desc>Mip Tail</desc><rect width="53.571" height="18" x="0" y="286.285" class="st3"/><text x="20.22" y="297.99" class="st5">Mip Tail</text></g><g id="shape3130-388" transform="translate(18.25,-39.0978)"><title>Sheet.3130</title><desc>Mip Level 3</desc><rect width="53.571" height="18" x="0" y="286.285" class="st3"/><text x="7.58" y="297.99" class="st5">Mip Level 3</text></g><g id="shape164-391" transform="translate(76.3214,-23.3478)"><title>Square.164</title><rect width="9" height="9" x="0" y="295.285" class="st6"/></g><g id="shape165-393" transform="translate(85.3214,-23.3478)"><title>Square.165</title><rect width="9" height="9" x="0" y="295.285" class="st1"/></g><g id="shape160-395" transform="translate(76.3214,-48.0978)"><title>Square.160</title><rect width="9" height="9" x="0" y="295.285" class="st1"/></g><g id="shape161-397" transform="translate(85.3214,-48.0978)"><title>Square.161</title><rect width="9" height="9" x="0" y="295.285" class="st1"/></g><g id="shape162-399" transform="translate(76.3214,-39.0978)"><title>Square.162</title><rect width="9" height="9" x="0" y="295.285" class="st1"/></g><g id="shape163-401" transform="translate(85.3214,-39.0978)"><title>Square.163</title><rect width="9" height="9" x="0" y="295.285" class="st1"/></g><g id="shape741-403" transform="translate(76.3214,-45.8478)"><title>Square.741</title><rect width="11.25" height="11.25" x="0" y="293.035" class="st2"/></g><g id="shape3239-405" transform="translate(76.2703,-23.3478)"><title>Rectangle</title><rect width="18.179" height="9" x="0" y="295.285" class="st7"/></g><g id="shape3240-407" transform="translate(170.924,-39.0978)"><title>Rectangle.3240</title><rect width="35.718" height="18" x="0" y="286.285" class="st7"/></g><g id="group3231-409" transform="translate(265.5,-157.223)"><title>Sheet.3231</title><g id="shape546-410" transform="translate(0,-36)"><title>Square.546</title><rect width="9" height="9" x="0" y="295.285" class="st1"/></g><g id="shape547-412" transform="translate(9,-36)"><title>Square.547</title><rect width="9" height="9" x="0" y="295.285" class="st1"/></g><g id="shape548-414" transform="translate(18,-36)"><title>Square.548</title><rect width="9" height="9" x="0" y="295.285" class="st1"/></g><g id="shape549-416" transform="translate(27,-36)"><title>Square.549</title><rect width="9" height="9" x="0" y="295.285" class="st1"/></g><g id="shape550-418" transform="translate(36,-36)"><title>Square.550</title><rect width="9" height="9" x="0" y="295.285" class="st1"/></g><g id="shape551-420" transform="translate(0,-27)"><title>Square.551</title><rect width="9" height="9" x="0" y="295.285" class="st1"/></g><g id="shape552-422" transform="translate(9,-27)"><title>Square.552</title><rect width="9" height="9" x="0" y="295.285" class="st1"/></g><g id="shape553-424" transform="translate(18,-27)"><title>Square.553</title><rect width="9" height="9" x="0" y="295.285" class="st1"/></g><g id="shape554-426" transform="translate(27,-27)"><title>Square.554</title><rect width="9" height="9" x="0" y="295.285" class="st1"/></g><g id="shape555-428" transform="translate(36,-27)"><title>Square.555</title><rect width="9" height="9" x="0" y="295.285" class="st1"/></g><g id="shape556-430" transform="translate(0,-18)"><title>Square.556</title><rect width="9" height="9" x="0" y="295.285" class="st1"/></g><g id="shape557-432" transform="translate(9,-18)"><title>Square.557</title><rect width="9" height="9" x="0" y="295.285" class="st1"/></g><g id="shape558-434" transform="translate(18,-18)"><title>Square.558</title><rect width="9" height="9" x="0" y="295.285" class="st1"/></g><g id="shape559-436" transform="translate(27,-18)"><title>Square.559</title><rect width="9" height="9" x="0" y="295.285" class="st1"/></g><g id="shape560-438" transform="translate(36,-18)"><title>Square.560</title><rect width="9" height="9" x="0" y="295.285" class="st1"/></g><g id="shape561-440" transform="translate(0,-9)"><title>Square.561</title><rect width="9" height="9" x="0" y="295.285" class="st1"/></g><g id="shape562-442" transform="translate(9,-9)"><title>Square.562</title><rect width="9" height="9" x="0" y="295.285" class="st1"/></g><g id="shape563-444" transform="translate(18,-9)"><title>Square.563</title><rect width="9" height="9" x="0" y="295.285" class="st1"/></g><g id="shape564-446" transform="translate(27,-9)"><title>Square.564</title><rect width="9" height="9" x="0" y="295.285" class="st1"/></g><g id="shape565-448" transform="translate(36,-9)"><title>Square.565</title><rect width="9" height="9" x="0" y="295.285" class="st1"/></g><g id="shape566-450"><title>Square.566</title><rect width="9" height="9" x="0" y="295.285" class="st1"/></g><g id="shape567-452" transform="translate(9,0)"><title>Square.567</title><rect width="9" height="9" x="0" y="295.285" class="st1"/></g><g id="shape568-454" transform="translate(18,0)"><title>Square.568</title><rect width="9" height="9" x="0" y="295.285" class="st1"/></g><g id="shape569-456" transform="translate(27,0)"><title>Square.569</title><rect width="9" height="9" x="0" y="295.285" class="st1"/></g><g id="shape570-458" transform="translate(36,0)"><title>Square.570</title><rect width="9" height="9" x="0" y="295.285" class="st1"/></g><g id="shape3206-460" transform="translate(0,-80.4375)"><title>Square.3206</title><rect width="9" height="9" x="0" y="295.285" class="st1"/></g><g id="shape3207-462" transform="translate(9,-80.4375)"><title>Square.3207</title><rect width="9" height="9" x="0" y="295.285" class="st1"/></g><g id="shape3208-464" transform="translate(18,-80.4375)"><title>Square.3208</title><rect width="9" height="9" x="0" y="295.285" class="st1"/></g><g id="shape3209-466" transform="translate(27,-80.4375)"><title>Square.3209</title><rect width="9" height="9" x="0" y="295.285" class="st1"/></g><g id="shape3210-468" transform="translate(36,-80.4375)"><title>Square.3210</title><rect width="9" height="9" x="0" y="295.285" class="st1"/></g><g id="shape3211-470" transform="translate(0,-71.4375)"><title>Square.3211</title><rect width="9" height="9" x="0" y="295.285" class="st1"/></g><g id="shape3212-472" transform="translate(9,-71.4375)"><title>Square.3212</title><rect width="9" height="9" x="0" y="295.285" class="st1"/></g><g id="shape3213-474" transform="translate(18,-71.4375)"><title>Square.3213</title><rect width="9" height="9" x="0" y="295.285" class="st1"/></g><g id="shape3214-476" transform="translate(27,-71.4375)"><title>Square.3214</title><rect width="9" height="9" x="0" y="295.285" class="st1"/></g><g id="shape3215-478" transform="translate(36,-71.4375)"><title>Square.3215</title><rect width="9" height="9" x="0" y="295.285" class="st1"/></g><g id="shape3216-480" transform="translate(0,-62.4375)"><title>Square.3216</title><rect width="9" height="9" x="0" y="295.285" class="st1"/></g><g id="shape3217-482" transform="translate(9,-62.4375)"><title>Square.3217</title><rect width="9" height="9" x="0" y="295.285" class="st1"/></g><g id="shape3218-484" transform="translate(18,-62.4375)"><title>Square.3218</title><rect width="9" height="9" x="0" y="295.285" class="st1"/></g><g id="shape3219-486" transform="translate(27,-62.4375)"><title>Square.3219</title><rect width="9" height="9" x="0" y="295.285" class="st1"/></g><g id="shape3220-488" transform="translate(36,-62.4375)"><title>Square.3220</title><rect width="9" height="9" x="0" y="295.285" class="st1"/></g><g id="shape3221-490" transform="translate(0,-53.4375)"><title>Square.3221</title><rect width="9" height="9" x="0" y="295.285" class="st1"/></g><g id="shape3222-492" transform="translate(9,-53.4375)"><title>Square.3222</title><rect width="9" height="9" x="0" y="295.285" class="st1"/></g><g id="shape3223-494" transform="translate(18,-53.4375)"><title>Square.3223</title><rect width="9" height="9" x="0" y="295.285" class="st1"/></g><g id="shape3224-496" transform="translate(27,-53.4375)"><title>Square.3224</title><rect width="9" height="9" x="0" y="295.285" class="st1"/></g><g id="shape3225-498" transform="translate(36,-53.4375)"><title>Square.3225</title><rect width="9" height="9" x="0" y="295.285" class="st1"/></g><g id="shape3226-500" transform="translate(0,-44.4375)"><title>Square.3226</title><rect width="9" height="9" x="0" y="295.285" class="st1"/></g><g id="shape3227-502" transform="translate(9,-44.4375)"><title>Square.3227</title><rect width="9" height="9" x="0" y="295.285" class="st1"/></g><g id="shape3228-504" transform="translate(18,-44.4375)"><title>Square.3228</title><rect width="9" height="9" x="0" y="295.285" class="st1"/></g><g id="shape3229-506" transform="translate(27,-44.4375)"><title>Square.3229</title><rect width="9" height="9" x="0" y="295.285" class="st1"/></g><g id="shape3230-508" transform="translate(36,-44.4375)"><title>Square.3230</title><rect width="9" height="9" x="0" y="295.285" class="st1"/></g></g><g id="shape3232-510" transform="translate(310.25,-192.942)"><title>Sheet.3232</title><desc>Mip Tail</desc><rect width="45" height="18" x="0" y="286.285" class="st3"/><text x="4" y="297.99" class="st5">Mip Tail</text></g><g id="shape3241-513" transform="translate(265.5,-157.223)"><title>Rectangle.3241</title><rect width="45" height="89.438" x="0" y="214.848" class="st7"/></g><g id="group3243-515" transform="translate(237.464,-25.4728)"><title>Sheet.3243</title><g id="group3244-516" transform="translate(-1.59872E-14,-27.25)"><title>Sheet.3244</title><g id="shape3245-517" transform="translate(-7.99361E-15,-3.375)"><title>Square.3160</title><rect width="11.25" height="11.25" x="0" y="293.035" class="st7"/></g><g id="shape3246-519" transform="translate(11.4286,0)"><title>Sheet.3246</title><desc>Mip Tail Data</desc><rect width="69.75" height="18" x="0" y="286.285" class="st3"/><text x="4" y="297.99" class="st8">Mip Tail Data</text></g></g><g id="group3247-522" transform="translate(-3.19744E-14,-13.5)"><title>Sheet.3247</title><g id="shape3248-523" transform="translate(-7.99361E-15,-3.375)"><title>Square.3154</title><rect width="11.25" height="11.25" x="0" y="293.035" class="st2"/></g><g id="shape3249-525" transform="translate(11.0714,0)"><title>Sheet.3249</title><desc>Image Pixel Data</desc><rect width="69.75" height="18" x="0" y="286.285" class="st3"/><text x="4" y="297.99" class="st8">Image Pixel Data</text></g></g><g id="group3250-528" transform="translate(1.125,0)"><title>Sheet.3250</title><g id="shape3251-529" transform="translate(0,-4.5)"><title>Square.3155</title><rect width="9" height="9" x="0" y="295.285" class="st1"/></g><g id="shape3252-531" transform="translate(9.94643,0)"><title>Sheet.3252</title><desc>Sparse Memory Block</desc><rect width="90" height="18" x="0" y="286.285" class="st3"/><text x="4" y="297.99" class="st8">Sparse Memory Block</text></g></g></g></g></svg>