<svg xmlns="http://www.w3.org/2000/svg" xmlns:svg="http://www.w3.org/2000/svg" id="svg2" width="668.917" height="297.431" version="1.1" viewBox="0.567 42.567 19.08 24.02"><metadata id="metadata92"/><ellipse id="ellipse4" cx="12" cy="54" rx="1.383" ry="1.383" transform="translate(-16.889867,0.57679194)" style="fill:none;stroke:#000;stroke-width:.1"/><text id="text6" x="-4.89" y="55.046" font-size="1.69" font-style="normal" font-weight="400" style="font-size:1.69000006px;font-style:normal;font-weight:400;text-anchor:middle;fill:#000;font-family:sans">0</text><ellipse id="ellipse8" cx="12" cy="44" rx="1.383" ry="1.383" transform="translate(-16.889867,0.57679194)" style="fill:none;stroke:#000;stroke-width:.1"/><text id="text10" x="-4.89" y="45.046" font-size="1.69" font-style="normal" font-weight="400" style="font-size:1.69000006px;font-style:normal;font-weight:400;text-anchor:middle;fill:#000;font-family:sans">2</text><ellipse id="ellipse12" cx="2" cy="44" rx="1.383" ry="1.383" transform="translate(-16.889867,0.57679194)" style="fill:none;stroke:#000;stroke-width:.1"/><text id="text14" x="-14.89" y="45.046" font-size="1.69" font-style="normal" font-weight="400" style="font-size:1.69000006px;font-style:normal;font-weight:400;text-anchor:middle;fill:#000;font-family:sans">1</text><ellipse id="ellipse16" cx="22" cy="64" rx="1.383" ry="1.383" transform="translate(-16.889867,0.57679194)" style="fill:none;stroke:#000;stroke-width:.1"/><text id="text18" x="5.11" y="65.046" font-size="1.69" font-style="normal" font-weight="400" style="font-size:1.69000006px;font-style:normal;font-weight:400;text-anchor:middle;fill:#000;font-family:sans">5</text><ellipse id="ellipse20" cx="22" cy="54" rx="1.383" ry="1.383" transform="translate(-16.889867,0.57679194)" style="fill:none;stroke:#000;stroke-width:.1"/><text id="text22" x="5.11" y="55.046" font-size="1.69" font-style="normal" font-weight="400" style="font-size:1.69000006px;font-style:normal;font-weight:400;text-anchor:middle;fill:#000;font-family:sans">4</text><ellipse id="ellipse24" cx="22" cy="44" rx="1.383" ry="1.383" transform="translate(-16.889867,0.57679194)" style="fill:none;stroke:#000;stroke-width:.1"/><text id="text26" x="5.11" y="45.046" font-size="1.69" font-style="normal" font-weight="400" style="font-size:1.69000006px;font-style:normal;font-weight:400;text-anchor:middle;fill:#000;font-family:sans">3</text><polyline id="polyline28" points="20.987 52.987 13.013 45.013" transform="translate(-16.889867,0.57679194)" style="fill:none;stroke:#000;stroke-width:.1"/><polyline id="polyline30" points="20.567 44 13.434 44" transform="translate(-16.889867,0.57679194)" style="fill:none;stroke:#000;stroke-width:.1;stroke-dasharray:1,1"/><polyline id="polyline32" points="20.567 54 13.434 54" transform="translate(-16.889867,0.57679194)" style="fill:none;stroke:#000;stroke-width:.1"/><polyline id="polyline34" points="12 45.434 12 52.567" transform="translate(-16.889867,0.57679194)" style="fill:none;stroke:#000;stroke-width:.1"/><polyline id="polyline36" points="22 45.434 22 52.567" transform="translate(-16.889867,0.57679194)" style="fill:none;stroke:#000;stroke-width:.1;stroke-dasharray:1,1"/><polyline id="polyline38" points="20.987 62.987 13.013 55.013" transform="translate(-16.889867,0.57679194)" style="fill:none;stroke:#000;stroke-width:.1;stroke-dasharray:1,1"/><polyline id="polyline40" points="10.987 52.987 3.013 45.013" transform="translate(-16.889867,0.57679194)" style="fill:none;stroke:#000;stroke-width:.1;stroke-dasharray:1,1"/><polyline id="polyline42" points="22 62.567 22 55.434" transform="translate(-16.889867,0.57679194)" style="fill:none;stroke:#000;stroke-width:.1;stroke-dasharray:1,1"/><polyline id="polyline44" points="3.434 44 10.567 44" transform="translate(-16.889867,0.57679194)" style="fill:none;stroke:#000;stroke-width:.1;stroke-dasharray:1,1"/><ellipse id="ellipse46" cx="42" cy="54" rx="1.383" ry="1.383" transform="translate(-16.889867,0.57679194)" style="fill:none;stroke:#000;stroke-width:.1"/><text id="text48" x="25.11" y="55.046" font-size="1.69" font-style="normal" font-weight="400" style="font-size:1.69000006px;font-style:normal;font-weight:400;text-anchor:middle;fill:#000;font-family:sans">6</text><ellipse id="ellipse50" cx="42" cy="44" rx="1.383" ry="1.383" transform="translate(-16.889867,0.57679194)" style="fill:none;stroke:#000;stroke-width:.1"/><text id="text52" x="25.11" y="45.046" font-size="1.69" font-style="normal" font-weight="400" style="font-size:1.69000006px;font-style:normal;font-weight:400;text-anchor:middle;fill:#000;font-family:sans">8</text><ellipse id="ellipse54" cx="32" cy="44" rx="1.383" ry="1.383" transform="translate(-16.889867,0.57679194)" style="fill:none;stroke:#000;stroke-width:.1"/><text id="text56" x="15.11" y="45.046" font-size="1.69" font-style="normal" font-weight="400" style="font-size:1.69000006px;font-style:normal;font-weight:400;text-anchor:middle;fill:#000;font-family:sans">7</text><ellipse id="ellipse58" cx="52" cy="64" rx="1.383" ry="1.383" transform="translate(-16.889867,0.57679194)" style="fill:none;stroke:#000;stroke-width:.1"/><text id="text60" x="35.11" y="65.046" font-size="1.69" font-style="normal" font-weight="400" style="font-size:1.69000006px;font-style:normal;font-weight:400;text-anchor:middle;fill:#000;font-family:sans">11</text><ellipse id="ellipse62" cx="52" cy="54" rx="1.383" ry="1.383" transform="translate(-16.889867,0.57679194)" style="fill:none;stroke:#000;stroke-width:.1"/><text id="text64" x="35.11" y="55.046" font-size="1.69" font-style="normal" font-weight="400" style="font-size:1.69000006px;font-style:normal;font-weight:400;text-anchor:middle;fill:#000;font-family:sans">10</text><ellipse id="ellipse66" cx="52" cy="44" rx="1.383" ry="1.383" transform="translate(-16.889867,0.57679194)" style="fill:none;stroke:#000;stroke-width:.1"/><text id="text68" x="35.11" y="45.046" font-size="1.69" font-style="normal" font-weight="400" style="font-size:1.69000006px;font-style:normal;font-weight:400;text-anchor:middle;fill:#000;font-family:sans">9</text><polyline id="polyline70" points="50.987 52.987 43.013 45.013" transform="translate(-16.889867,0.57679194)" style="fill:none;stroke:#000;stroke-width:.1"/><polyline id="polyline72" points="50.567 44 43.434 44" transform="translate(-16.889867,0.57679194)" style="fill:none;stroke:#000;stroke-width:.1;stroke-dasharray:1,1"/><polyline id="polyline74" points="50.567 54 43.434 54" transform="translate(-16.889867,0.57679194)" style="fill:none;stroke:#000;stroke-width:.1"/><polyline id="polyline76" points="42 45.434 42 52.567" transform="translate(-16.889867,0.57679194)" style="fill:none;stroke:#000;stroke-width:.1"/><polyline id="polyline78" points="52 45.434 52 52.567" transform="translate(-16.889867,0.57679194)" style="fill:none;stroke:#000;stroke-width:.1;stroke-dasharray:1,1"/><polyline id="polyline80" points="50.987 62.987 43.013 55.013" transform="translate(-16.889867,0.57679194)" style="fill:none;stroke:#000;stroke-width:.1;stroke-dasharray:1,1"/><polyline id="polyline82" points="40.987 52.987 33.013 45.013" transform="translate(-16.889867,0.57679194)" style="fill:none;stroke:#000;stroke-width:.1;stroke-dasharray:1,1"/><polyline id="polyline84" points="52 62.567 52 55.434" transform="translate(-16.889867,0.57679194)" style="fill:none;stroke:#000;stroke-width:.1;stroke-dasharray:1,1"/><polyline id="polyline86" points="33.434 44 40.567 44" transform="translate(-16.889867,0.57679194)" style="fill:none;stroke:#000;stroke-width:.1;stroke-dasharray:1,1"/></svg>