<svg xmlns="http://www.w3.org/2000/svg" xmlns:svg="http://www.w3.org/2000/svg" id="svg2" width="109.048" height="87.048" version="1.1"><metadata id="metadata272"/><ellipse id="ellipse4" cx="-44.617" cy="65.383" rx="1.383" ry="1.383" transform="translate(115.14911,3.1491142)" style="fill:none;stroke:#000;stroke-width:.1"/><text id="text6" x="70.532" y="68.999" style="font-size:1.69000006px;font-style:normal;font-weight:400;text-anchor:middle;fill:#000;font-family:sans">0</text><ellipse id="ellipse8" cx="-44.617" cy="55.383" rx="1.383" ry="1.383" transform="translate(115.14911,3.1491142)" style="fill:none;stroke:#000;stroke-width:.1"/><text id="text10" x="70.532" y="58.999" style="font-size:1.69000006px;font-style:normal;font-weight:400;text-anchor:middle;fill:#000;font-family:sans">2</text><ellipse id="ellipse12" cx="-54.617" cy="55.383" rx="1.383" ry="1.383" transform="translate(115.14911,3.1491142)" style="fill:none;stroke:#000;stroke-width:.1"/><text id="text14" x="60.532" y="58.999" style="font-size:1.69000006px;font-style:normal;font-weight:400;text-anchor:middle;fill:#000;font-family:sans">1</text><ellipse id="ellipse16" cx="-44.617" cy="45.383" rx="1.383" ry="1.383" transform="translate(115.14911,3.1491142)" style="fill:none;stroke:#000;stroke-width:.1"/><text id="text18" x="70.532" y="48.999" style="font-size:1.69000006px;font-style:normal;font-weight:400;text-anchor:middle;fill:#000;font-family:sans">5</text><ellipse id="ellipse20" cx="-34.617" cy="75.383" rx="1.383" ry="1.383" transform="translate(115.14911,3.1491142)" style="fill:none;stroke:#000;stroke-width:.1"/><text id="text22" x="80.532" y="78.999" style="font-size:1.69000006px;font-style:normal;font-weight:400;text-anchor:middle;fill:#000;font-family:sans">3</text><ellipse id="ellipse24" cx="-24.617" cy="75.383" rx="1.383" ry="1.383" transform="translate(115.14911,3.1491142)" style="fill:none;stroke:#000;stroke-width:.1"/><text id="text26" x="90.532" y="78.999" style="font-size:1.69000006px;font-style:normal;font-weight:400;text-anchor:middle;fill:#000;font-family:sans">7</text><ellipse id="ellipse28" cx="-34.617" cy="65.383" rx="1.383" ry="1.383" transform="translate(115.14911,3.1491142)" style="fill:none;stroke:#000;stroke-width:.1"/><text id="text30" x="80.532" y="68.999" style="font-size:1.69000006px;font-style:normal;font-weight:400;text-anchor:middle;fill:#000;font-family:sans">4</text><ellipse id="ellipse32" cx="-34.617" cy="55.383" rx="1.383" ry="1.383" transform="translate(115.14911,3.1491142)" style="fill:none;stroke:#000;stroke-width:.1"/><text id="text34" x="80.532" y="58.999" style="font-size:1.69000006px;font-style:normal;font-weight:400;text-anchor:middle;fill:#000;font-family:sans">6</text><ellipse id="ellipse36" cx="-34.617" cy="45.383" rx="1.383" ry="1.383" transform="translate(115.14911,3.1491142)" style="fill:none;stroke:#000;stroke-width:.1"/><text id="text38" x="80.532" y="48.999" style="font-size:1.69000006px;font-style:normal;font-weight:400;text-anchor:middle;fill:#000;font-family:sans">9</text><ellipse id="ellipse40" cx="-24.617" cy="65.383" rx="1.383" ry="1.383" transform="translate(115.14911,3.1491142)" style="fill:none;stroke:#000;stroke-width:.1"/><text id="text42" x="90.532" y="68.999" style="font-size:1.69000006px;font-style:normal;font-weight:400;text-anchor:middle;fill:#000;font-family:sans">8</text><ellipse id="ellipse44" cx="-24.617" cy="55.383" rx="1.383" ry="1.383" transform="translate(115.14911,3.1491142)" style="fill:none;stroke:#000;stroke-width:.1"/><text id="text46" x="90.532" y="58.999" style="font-size:1.69000006px;font-style:normal;font-weight:400;text-anchor:middle;fill:#000;font-family:sans">10</text><ellipse id="ellipse48" cx="-14.617" cy="65.383" rx="1.383" ry="1.383" transform="translate(115.14911,3.1491142)" style="fill:none;stroke:#000;stroke-width:.1"/><text id="text50" x="100.532" y="68.999" style="font-size:1.69000006px;font-style:normal;font-weight:400;text-anchor:middle;fill:#000;font-family:sans">11</text><polyline id="polyline52" points="-25.63 64.37 -33.603 56.397" transform="translate(115.14911,3.1491142)" style="fill:none;stroke:#000;stroke-width:.1"/><polyline id="polyline54" points="-35.63 64.37 -43.603 56.397" transform="translate(115.14911,3.1491142)" style="fill:none;stroke:#000;stroke-width:.1"/><polyline id="polyline56" points="-36.05 55.383 -43.183 55.383" transform="translate(115.14911,3.1491142)" style="fill:none;stroke:#000;stroke-width:.1"/><polyline id="polyline58" points="-26.05 55.383 -33.183 55.383" transform="translate(115.14911,3.1491142)" style="fill:none;stroke:#000;stroke-width:.1"/><polyline id="polyline60" points="-36.05 65.383 -43.183 65.383" transform="translate(115.14911,3.1491142)" style="fill:none;stroke:#000;stroke-width:.1"/><polyline id="polyline62" points="-26.05 65.383 -33.183 65.383" transform="translate(115.14911,3.1491142)" style="fill:none;stroke:#000;stroke-width:.1"/><polyline id="polyline64" points="-44.617 56.817 -44.617 63.95" transform="translate(115.14911,3.1491142)" style="fill:none;stroke:#000;stroke-width:.1"/><polyline id="polyline66" points="-24.617 56.817 -24.617 63.95" transform="translate(115.14911,3.1491142)" style="fill:none;stroke:#000;stroke-width:.1"/><polyline id="polyline68" points="-34.617 56.817 -34.617 63.95" transform="translate(115.14911,3.1491142)" style="fill:none;stroke:#000;stroke-width:.1"/><polyline id="polyline70" points="-35.63 54.37 -43.639 46.361" transform="translate(115.14911,3.1491142)" style="fill:none;stroke:#000;stroke-width:.1;stroke-dasharray:1,1"/><polyline id="polyline72" points="-35.63 74.37 -43.603 66.397" transform="translate(115.14911,3.1491142)" style="fill:none;stroke:#000;stroke-width:.1;stroke-dasharray:1,1"/><polyline id="polyline74" points="-25.63 74.37 -33.603 66.397" transform="translate(115.14911,3.1491142)" style="fill:none;stroke:#000;stroke-width:.1;stroke-dasharray:1,1"/><polyline id="polyline76" points="-45.63 64.37 -53.603 56.397" transform="translate(115.14911,3.1491142)" style="fill:none;stroke:#000;stroke-width:.1;stroke-dasharray:1,1"/><polyline id="polyline78" points="-25.63 54.37 -33.603 46.397" transform="translate(115.14911,3.1491142)" style="fill:none;stroke:#000;stroke-width:.1;stroke-dasharray:1,1"/><polyline id="polyline80" points="-15.63 64.37 -23.603 56.397" transform="translate(115.14911,3.1491142)" style="fill:none;stroke:#000;stroke-width:.1;stroke-dasharray:1,1"/><polyline id="polyline82" points="-44.617 53.95 -44.617 46.817" transform="translate(115.14911,3.1491142)" style="fill:none;stroke:#000;stroke-width:.1;stroke-dasharray:1,1"/><polyline id="polyline84" points="-34.617 53.95 -34.617 46.817" transform="translate(115.14911,3.1491142)" style="fill:none;stroke:#000;stroke-width:.1;stroke-dasharray:1,1"/><polyline id="polyline86" points="-24.617 73.95 -24.617 66.817" transform="translate(115.14911,3.1491142)" style="fill:none;stroke:#000;stroke-width:.1;stroke-dasharray:1,1"/><polyline id="polyline88" points="-34.617 73.95 -34.617 66.817" transform="translate(115.14911,3.1491142)" style="fill:none;stroke:#000;stroke-width:.1;stroke-dasharray:1,1"/><polyline id="polyline90" points="-53.183 55.383 -46.05 55.383" transform="translate(115.14911,3.1491142)" style="fill:none;stroke:#000;stroke-width:.1;stroke-dasharray:1,1"/><polyline id="polyline92" points="-23.183 65.383 -16.05 65.383" transform="translate(115.14911,3.1491142)" style="fill:none;stroke:#000;stroke-width:.1;stroke-dasharray:1,1"/><ellipse id="ellipse94" cx="-96.617" cy="65.383" rx="1.383" ry="1.383" transform="translate(115.14911,3.1491142)" style="fill:none;stroke:#000;stroke-width:.1"/><text id="text96" x="18.532" y="68.999" style="font-size:1.69000006px;font-style:normal;font-weight:400;text-anchor:middle;fill:#000;font-family:sans">0</text><ellipse id="ellipse98" cx="-96.617" cy="55.383" rx="1.383" ry="1.383" transform="translate(115.14911,3.1491142)" style="fill:none;stroke:#000;stroke-width:.1"/><text id="text100" x="18.532" y="58.999" style="font-size:1.69000006px;font-style:normal;font-weight:400;text-anchor:middle;fill:#000;font-family:sans">2</text><ellipse id="ellipse102" cx="-106.617" cy="55.383" rx="1.383" ry="1.383" transform="translate(115.14911,3.1491142)" style="fill:none;stroke:#000;stroke-width:.1"/><text id="text104" x="8.532" y="58.999" style="font-size:1.69000006px;font-style:normal;font-weight:400;text-anchor:middle;fill:#000;font-family:sans">1</text><ellipse id="ellipse106" cx="-96.617" cy="45.383" rx="1.383" ry="1.383" transform="translate(115.14911,3.1491142)" style="fill:none;stroke:#000;stroke-width:.1"/><text id="text108" x="18.532" y="48.999" style="font-size:1.69000006px;font-style:normal;font-weight:400;text-anchor:middle;fill:#000;font-family:sans">5</text><ellipse id="ellipse110" cx="-86.617" cy="75.383" rx="1.383" ry="1.383" transform="translate(115.14911,3.1491142)" style="fill:none;stroke:#000;stroke-width:.1"/><text id="text112" x="28.532" y="78.999" style="font-size:1.69000006px;font-style:normal;font-weight:400;text-anchor:middle;fill:#000;font-family:sans">3</text><ellipse id="ellipse114" cx="-76.617" cy="75.383" rx="1.383" ry="1.383" transform="translate(115.14911,3.1491142)" style="fill:none;stroke:#000;stroke-width:.1"/><text id="text116" x="38.532" y="78.999" style="font-size:1.69000006px;font-style:normal;font-weight:400;text-anchor:middle;fill:#000;font-family:sans">7</text><ellipse id="ellipse118" cx="-86.617" cy="65.383" rx="1.383" ry="1.383" transform="translate(115.14911,3.1491142)" style="fill:none;stroke:#000;stroke-width:.1"/><text id="text120" x="28.532" y="68.999" style="font-size:1.69000006px;font-style:normal;font-weight:400;text-anchor:middle;fill:#000;font-family:sans">4</text><ellipse id="ellipse122" cx="-86.617" cy="55.383" rx="1.383" ry="1.383" transform="translate(115.14911,3.1491142)" style="fill:none;stroke:#000;stroke-width:.1"/><text id="text124" x="28.532" y="58.999" style="font-size:1.69000006px;font-style:normal;font-weight:400;text-anchor:middle;fill:#000;font-family:sans">6</text><ellipse id="ellipse126" cx="-76.617" cy="65.383" rx="1.383" ry="1.383" transform="translate(115.14911,3.1491142)" style="fill:none;stroke:#000;stroke-width:.1"/><text id="text128" x="38.532" y="68.999" style="font-size:1.69000006px;font-style:normal;font-weight:400;text-anchor:middle;fill:#000;font-family:sans">8</text><ellipse id="ellipse130" cx="-76.617" cy="55.383" rx="1.383" ry="1.383" transform="translate(115.14911,3.1491142)" style="fill:none;stroke:#000;stroke-width:.1"/><text id="text132" x="38.532" y="58.999" style="font-size:1.69000006px;font-style:normal;font-weight:400;text-anchor:middle;fill:#000;font-family:sans">9</text><polyline id="polyline134" points="-77.63 64.37 -85.603 56.397" transform="translate(115.14911,3.1491142)" style="fill:none;stroke:#000;stroke-width:.1"/><polyline id="polyline136" points="-87.63 64.37 -95.603 56.397" transform="translate(115.14911,3.1491142)" style="fill:none;stroke:#000;stroke-width:.1"/><polyline id="polyline138" points="-88.05 55.383 -95.183 55.383" transform="translate(115.14911,3.1491142)" style="fill:none;stroke:#000;stroke-width:.1"/><polyline id="polyline140" points="-78.05 55.383 -85.183 55.383" transform="translate(115.14911,3.1491142)" style="fill:none;stroke:#000;stroke-width:.1;stroke-dasharray:1,1"/><polyline id="polyline142" points="-88.05 65.383 -95.183 65.383" transform="translate(115.14911,3.1491142)" style="fill:none;stroke:#000;stroke-width:.1"/><polyline id="polyline144" points="-78.05 65.383 -85.183 65.383" transform="translate(115.14911,3.1491142)" style="fill:none;stroke:#000;stroke-width:.1"/><polyline id="polyline146" points="-96.617 56.817 -96.617 63.95" transform="translate(115.14911,3.1491142)" style="fill:none;stroke:#000;stroke-width:.1"/><polyline id="polyline148" points="-76.617 56.817 -76.617 63.95" transform="translate(115.14911,3.1491142)" style="fill:none;stroke:#000;stroke-width:.1;stroke-dasharray:1,1"/><polyline id="polyline150" points="-86.617 56.817 -86.617 63.95" transform="translate(115.14911,3.1491142)" style="fill:none;stroke:#000;stroke-width:.1"/><polyline id="polyline152" points="-87.63 54.37 -95.638 46.361" transform="translate(115.14911,3.1491142)" style="fill:none;stroke:#000;stroke-width:.1;stroke-dasharray:1,1"/><polyline id="polyline154" points="-87.63 74.37 -95.603 66.397" transform="translate(115.14911,3.1491142)" style="fill:none;stroke:#000;stroke-width:.1;stroke-dasharray:1,1"/><polyline id="polyline156" points="-77.63 74.37 -85.603 66.397" transform="translate(115.14911,3.1491142)" style="fill:none;stroke:#000;stroke-width:.1;stroke-dasharray:1,1"/><polyline id="polyline158" points="-97.63 64.37 -105.603 56.397" transform="translate(115.14911,3.1491142)" style="fill:none;stroke:#000;stroke-width:.1;stroke-dasharray:1,1"/><polyline id="polyline160" points="-96.617 53.95 -96.617 46.817" transform="translate(115.14911,3.1491142)" style="fill:none;stroke:#000;stroke-width:.1;stroke-dasharray:1,1"/><polyline id="polyline162" points="-76.617 73.95 -76.617 66.817" transform="translate(115.14911,3.1491142)" style="fill:none;stroke:#000;stroke-width:.1;stroke-dasharray:1,1"/><polyline id="polyline164" points="-86.617 73.95 -86.617 66.817" transform="translate(115.14911,3.1491142)" style="fill:none;stroke:#000;stroke-width:.1;stroke-dasharray:1,1"/><polyline id="polyline166" points="-105.183 55.383 -98.05 55.383" transform="translate(115.14911,3.1491142)" style="fill:none;stroke:#000;stroke-width:.1;stroke-dasharray:1,1"/><ellipse id="ellipse168" cx="-44.617" cy="25.383" rx="1.383" ry="1.383" transform="translate(115.14911,3.1491142)" style="fill:none;stroke:#000;stroke-width:.1"/><text id="text170" x="70.532" y="28.999" style="font-size:1.69000006px;font-style:normal;font-weight:400;text-anchor:middle;fill:#000;font-family:sans">0</text><ellipse id="ellipse172" cx="-44.617" cy="15.383" rx="1.383" ry="1.383" transform="translate(115.14911,3.1491142)" style="fill:none;stroke:#000;stroke-width:.1"/><text id="text174" x="70.532" y="18.999" style="font-size:1.69000006px;font-style:normal;font-weight:400;text-anchor:middle;fill:#000;font-family:sans">2</text><ellipse id="ellipse176" cx="-54.617" cy="15.383" rx="1.383" ry="1.383" transform="translate(115.14911,3.1491142)" style="fill:none;stroke:#000;stroke-width:.1"/><text id="text178" x="60.532" y="18.999" style="font-size:1.69000006px;font-style:normal;font-weight:400;text-anchor:middle;fill:#000;font-family:sans">1</text><ellipse id="ellipse180" cx="-44.617" cy="5.383" rx="1.383" ry="1.383" transform="translate(115.14911,3.1491142)" style="fill:none;stroke:#000;stroke-width:.1"/><text id="text182" x="70.532" y="8.999" style="font-size:1.69000006px;font-style:normal;font-weight:400;text-anchor:middle;fill:#000;font-family:sans">5</text><ellipse id="ellipse184" cx="-34.617" cy="35.383" rx="1.383" ry="1.383" transform="translate(115.14911,3.1491142)" style="fill:none;stroke:#000;stroke-width:.1"/><text id="text186" x="80.532" y="38.999" style="font-size:1.69000006px;font-style:normal;font-weight:400;text-anchor:middle;fill:#000;font-family:sans">3</text><ellipse id="ellipse188" cx="-34.617" cy="25.383" rx="1.383" ry="1.383" transform="translate(115.14911,3.1491142)" style="fill:none;stroke:#000;stroke-width:.1"/><text id="text190" x="80.532" y="28.999" style="font-size:1.69000006px;font-style:normal;font-weight:400;text-anchor:middle;fill:#000;font-family:sans">4</text><ellipse id="ellipse192" cx="-34.617" cy="15.383" rx="1.383" ry="1.383" transform="translate(115.14911,3.1491142)" style="fill:none;stroke:#000;stroke-width:.1"/><text id="text194" x="80.532" y="18.999" style="font-size:1.69000006px;font-style:normal;font-weight:400;text-anchor:middle;fill:#000;font-family:sans">6</text><ellipse id="ellipse196" cx="-24.617" cy="25.383" rx="1.383" ry="1.383" transform="translate(115.14911,3.1491142)" style="fill:none;stroke:#000;stroke-width:.1"/><text id="text198" x="90.532" y="28.999" style="font-size:1.69000006px;font-style:normal;font-weight:400;text-anchor:middle;fill:#000;font-family:sans">7</text><polyline id="polyline200" points="-25.63 24.37 -33.603 16.397" transform="translate(115.14911,3.1491142)" style="fill:none;stroke:#000;stroke-width:.1;stroke-dasharray:1,1"/><polyline id="polyline202" points="-35.63 24.37 -43.603 16.397" transform="translate(115.14911,3.1491142)" style="fill:none;stroke:#000;stroke-width:.1"/><polyline id="polyline204" points="-36.05 15.383 -43.183 15.383" transform="translate(115.14911,3.1491142)" style="fill:none;stroke:#000;stroke-width:.1"/><polyline id="polyline206" points="-36.05 25.383 -43.183 25.383" transform="translate(115.14911,3.1491142)" style="fill:none;stroke:#000;stroke-width:.1"/><polyline id="polyline208" points="-26.05 25.383 -33.183 25.383" transform="translate(115.14911,3.1491142)" style="fill:none;stroke:#000;stroke-width:.1;stroke-dasharray:1,1"/><polyline id="polyline210" points="-44.617 16.817 -44.617 23.95" transform="translate(115.14911,3.1491142)" style="fill:none;stroke:#000;stroke-width:.1"/><polyline id="polyline212" points="-34.617 16.817 -34.617 23.95" transform="translate(115.14911,3.1491142)" style="fill:none;stroke:#000;stroke-width:.1"/><polyline id="polyline214" points="-35.63 14.37 -43.639 6.362" transform="translate(115.14911,3.1491142)" style="fill:none;stroke:#000;stroke-width:.1;stroke-dasharray:1,1"/><polyline id="polyline216" points="-35.63 34.37 -43.603 26.397" transform="translate(115.14911,3.1491142)" style="fill:none;stroke:#000;stroke-width:.1;stroke-dasharray:1,1"/><polyline id="polyline218" points="-45.63 24.37 -53.603 16.397" transform="translate(115.14911,3.1491142)" style="fill:none;stroke:#000;stroke-width:.1;stroke-dasharray:1,1"/><polyline id="polyline220" points="-44.617 13.95 -44.617 6.817" transform="translate(115.14911,3.1491142)" style="fill:none;stroke:#000;stroke-width:.1;stroke-dasharray:1,1"/><polyline id="polyline222" points="-34.617 33.95 -34.617 26.817" transform="translate(115.14911,3.1491142)" style="fill:none;stroke:#000;stroke-width:.1;stroke-dasharray:1,1"/><polyline id="polyline224" points="-53.183 15.383 -46.05 15.383" transform="translate(115.14911,3.1491142)" style="fill:none;stroke:#000;stroke-width:.1;stroke-dasharray:1,1"/><ellipse id="ellipse226" cx="-96.617" cy="25.383" rx="1.383" ry="1.383" transform="translate(115.14911,3.1491142)" style="fill:none;stroke:#000;stroke-width:.1"/><text id="text228" x="18.532" y="28.999" style="font-size:1.69000006px;font-style:normal;font-weight:400;text-anchor:middle;fill:#000;font-family:sans">0</text><ellipse id="ellipse230" cx="-96.617" cy="15.383" rx="1.383" ry="1.383" transform="translate(115.14911,3.1491142)" style="fill:none;stroke:#000;stroke-width:.1"/><text id="text232" x="18.532" y="18.999" style="font-size:1.69000006px;font-style:normal;font-weight:400;text-anchor:middle;fill:#000;font-family:sans">2</text><ellipse id="ellipse234" cx="-106.617" cy="15.383" rx="1.383" ry="1.383" transform="translate(115.14911,3.1491142)" style="fill:none;stroke:#000;stroke-width:.1"/><text id="text236" x="8.532" y="18.999" style="font-size:1.69000006px;font-style:normal;font-weight:400;text-anchor:middle;fill:#000;font-family:sans">1</text><ellipse id="ellipse238" cx="-86.617" cy="35.383" rx="1.383" ry="1.383" transform="translate(115.14911,3.1491142)" style="fill:none;stroke:#000;stroke-width:.1"/><text id="text240" x="28.532" y="38.999" style="font-size:1.69000006px;font-style:normal;font-weight:400;text-anchor:middle;fill:#000;font-family:sans">3</text><ellipse id="ellipse242" cx="-86.617" cy="25.383" rx="1.383" ry="1.383" transform="translate(115.14911,3.1491142)" style="fill:none;stroke:#000;stroke-width:.1"/><text id="text244" x="28.532" y="28.999" style="font-size:1.69000006px;font-style:normal;font-weight:400;text-anchor:middle;fill:#000;font-family:sans">4</text><ellipse id="ellipse246" cx="-86.617" cy="15.383" rx="1.383" ry="1.383" transform="translate(115.14911,3.1491142)" style="fill:none;stroke:#000;stroke-width:.1"/><text id="text248" x="28.532" y="18.999" style="font-size:1.69000006px;font-style:normal;font-weight:400;text-anchor:middle;fill:#000;font-family:sans">5</text><polyline id="polyline250" points="-87.63 24.37 -95.603 16.397" transform="translate(115.14911,3.1491142)" style="fill:none;stroke:#000;stroke-width:.1"/><polyline id="polyline252" points="-88.05 15.383 -95.183 15.383" transform="translate(115.14911,3.1491142)" style="fill:none;stroke:#000;stroke-width:.1;stroke-dasharray:1,1"/><polyline id="polyline254" points="-88.05 25.383 -95.183 25.383" transform="translate(115.14911,3.1491142)" style="fill:none;stroke:#000;stroke-width:.1"/><polyline id="polyline256" points="-96.617 16.817 -96.617 23.95" transform="translate(115.14911,3.1491142)" style="fill:none;stroke:#000;stroke-width:.1"/><polyline id="polyline258" points="-86.617 16.817 -86.617 23.95" transform="translate(115.14911,3.1491142)" style="fill:none;stroke:#000;stroke-width:.1;stroke-dasharray:1,1"/><polyline id="polyline260" points="-87.63 34.37 -95.603 26.397" transform="translate(115.14911,3.1491142)" style="fill:none;stroke:#000;stroke-width:.1;stroke-dasharray:1,1"/><polyline id="polyline262" points="-97.63 24.37 -105.603 16.397" transform="translate(115.14911,3.1491142)" style="fill:none;stroke:#000;stroke-width:.1;stroke-dasharray:1,1"/><polyline id="polyline264" points="-86.617 33.95 -86.617 26.817" transform="translate(115.14911,3.1491142)" style="fill:none;stroke:#000;stroke-width:.1;stroke-dasharray:1,1"/><polyline id="polyline266" points="-105.183 15.383 -98.05 15.383" transform="translate(115.14911,3.1491142)" style="fill:none;stroke:#000;stroke-width:.1;stroke-dasharray:1,1"/></svg>